<svg id="Graphic_Elements" data-name="Graphic Elements" xmlns="http://www.w3.org/2000/svg" viewBox="0 0 1200 1200"><g id="layer1"><path id="path3072" d="M484.87,68.72c-4.49,0-23.17,9.82-32,16.85-5,4-57.18,23.88-93.05,35.48-40.56,13.12-52.19,16.32-73.94,20.44-34,6.46-53.44,21.39-69.14,53.2-4.45,9-9.73,23.43-11.71,32.07s-4.56,16.67-5.71,17.85-2.07,6.28-2.07,11.4c0,8.94-1,10.85-14.57,29.3-1.91,2.6-4.28,11.4-5.27,19.58-1.3,10.8-3.18,16.43-7,20.44-4.36,4.65-5.54,9.24-7.26,28.61-2.22,25-3.27,29.3-18.58,78-11.79,37.48-21.44,74.45-27.87,106.48-4.92,24.47-9,60.59-7.48,66.51.52,2,5.16,5.26,10.28,7.13L141.43,620c38.62,14,51,16.42,90.11,17.33l37.64.86,7.86,7.87c6.86,6.86,9.24,7.86,19,7.86,6.13,0,11.15.72,11.15,1.65,0,4.53-12,49.35-14.52,54.32-4.56,9-6.2,37.41-3.2,55,4,23.6,3.52,31.65-3.5,54.88-7.43,24.63-6.71,32.75,5.36,60.25,8,18.31,8.53,27.35,2.38,43-5.12,13-5.75,25-1.69,32.11,1.91,3.34,3.22,22.35,4.15,59.81,1.38,55.52,5.4,87,11.93,93.74,2.17,2.23,5.9,2.44,16.08.82,15-2.39,65.08.19,82.76,4.28,6.17,1.42,23.35,6,38.15,10.07,27,7.47,66.12,15.73,82.94,17.5,4.93.52,30.7.67,57.21.34,39.06-.48,52.67-1.54,71.74-5.49,39.87-8.24,59.84-14.58,103.29-32.88,47.8-20.14,82.8-30.81,110.37-33.62,11.27-1.15,15.78-2.6,17.37-5.58,2.86-5.34,2.75-53.32-.17-75.37a196.15,196.15,0,0,0-7-31.28l-4.71-13.7,8.26-19.28c15.94-37.12,18.27-66.43,6.61-83.62-4.35-6.4-5.33-9.92-4.19-15.21C900,764.09,902,712.44,893.21,665.39l-1.43-7.57,15.43,1.73c27.87,3.15,39.75,0,53.24-14.21,4.85-5.1,9.24-7.17,17.94-8.35,27.41-3.7,63.45-13.06,92.26-24,26.78-10.14,26.29-9.3,19.1-33-2.44-8-7.56-25.76-11.36-39.32-9.18-32.72-22.41-75.4-36.13-116.43-10-30-11-34.8-9.72-46.19,1.87-16.18-1.56-29-9.73-36.26-5.89-5.26-6.52-7.3-7.91-26.71-1.41-19.87-10.1-60.38-14.9-69.36a24.33,24.33,0,0,1-2.21-9.72c0-3.1-2.71-12.9-6-21.78-9.07-24.49-26.19-41.7-55.53-55.88-12.42-6-36.2-15.55-52.85-21.26-90.43-31-108.52-38.4-131.2-53.46-10.6-7-13.83-8.2-17.68-6.35C714.31,87,656.29,95.59,611.14,95.59s-76.92-6.25-110-21.65c-6.17-2.87-13.5-5.22-16.25-5.23Z" style="fill:#333"/><path id="path1951" d="M484.87,68.72c-4.49,0-23.17,9.82-32,16.85-5,4-57.18,23.88-93.05,35.48-40.56,13.12-52.19,16.32-73.94,20.44-34,6.46-53.44,21.39-69.14,53.2-4.45,9-9.73,23.43-11.71,32.07s-4.56,16.67-5.71,17.85-2.07,6.28-2.07,11.4c0,8.94-1,10.85-14.57,29.3-1.91,2.6-4.28,11.4-5.27,19.58-1.3,10.8-3.18,16.43-7,20.44-4.36,4.65-5.54,9.24-7.26,28.61-2.22,25-3.27,29.3-18.58,78-11.79,37.48-21.44,74.45-27.87,106.48-4.92,24.47-9,60.59-7.48,66.51.52,2,5.16,5.26,10.28,7.13L141.43,620c38.62,14,51,16.42,90.11,17.33l37.64.86,7.86,7.87c6.86,6.86,9.24,7.86,19,7.86,6.13,0,11.15.72,11.15,1.65,0,4.53-12,49.35-14.52,54.32-4.56,9-6.2,37.41-3.2,55,4,23.6,3.52,31.65-3.5,54.88-7.43,24.63-6.71,32.75,5.36,60.25,8,18.31,8.53,27.35,2.38,43-5.12,13-5.75,25-1.69,32.11,1.91,3.34,3.22,22.35,4.15,59.81,1.38,55.52,5.4,87,11.93,93.74,2.17,2.23,5.9,2.44,16.08.82,15-2.39,65.08.19,82.76,4.28,6.17,1.42,23.35,6,38.15,10.07,27,7.47,66.12,15.73,82.94,17.5,4.93.52,30.7.67,57.21.34,39.06-.48,52.67-1.54,71.74-5.49,39.87-8.24,59.84-14.58,103.29-32.88,47.8-20.14,82.8-30.81,110.37-33.62,11.27-1.15,15.78-2.6,17.37-5.58,2.86-5.34,2.75-53.32-.17-75.37a196.15,196.15,0,0,0-7-31.28l-4.71-13.7,8.26-19.28c15.94-37.12,18.27-66.43,6.61-83.62-4.35-6.4-5.33-9.92-4.19-15.21C900,764.09,902,712.44,893.21,665.39l-1.43-7.57,15.43,1.73c27.87,3.15,39.75,0,53.24-14.21,4.85-5.1,9.24-7.17,17.94-8.35,27.41-3.7,63.45-13.06,92.26-24,26.78-10.14,26.29-9.3,19.1-33-2.44-8-7.56-25.76-11.36-39.32-9.18-32.72-22.41-75.4-36.13-116.43-10-30-11-34.8-9.72-46.19,1.87-16.18-1.56-29-9.73-36.26-5.89-5.26-6.52-7.3-7.91-26.71-1.41-19.87-10.1-60.38-14.9-69.36a24.33,24.33,0,0,1-2.21-9.72c0-3.1-2.71-12.9-6-21.78-9.07-24.49-26.19-41.7-55.53-55.88-12.42-6-36.2-15.55-52.85-21.26-90.43-31-108.52-38.4-131.2-53.46-10.6-7-13.83-8.2-17.68-6.35C714.31,87,656.29,95.59,611.14,95.59s-76.92-6.25-110-21.65c-6.17-2.87-13.5-5.22-16.25-5.23Zm-3,8.94c1.3,0,4.38,3.93,6.83,8.73,8.08,15.84,31.95,45.34,46.2,57.09,27.89,23,60.47,33.92,85.52,28.61,27.06-5.74,50.58-17.74,74.29-37.86,11.72-9.94,33.87-34.49,41-45.37l3.63-5.49,9.29,6.13c5.11,3.39,9.29,7.18,9.29,8.43,0,5.34-14.07,29.44-25.67,44-23.76,29.83-54.78,48-95.42,55.8-49.29,9.49-95.06-5-134.23-42.57-21-20.14-42.91-52.12-42.91-62.62,0-3.15,17.5-14.87,22.21-14.87Zm290.45,26.88c.34,0,7.58,2.9,16.08,6.4s21.51,8.44,28.91,11,32.5,11.28,55.79,19.36c49.84,17.29,74.95,29,89,41.36,10.88,9.57,22.42,28.95,26.58,44.6,2.85,10.69,2,13-14.13,38.59l-9.08,14.39-3.11-7.7c-4.84-12-9.14-15.51-18.75-15.51-6.88,0-10.39,1.69-17.55,8.43-10.31,9.71-12.42,16.31-20.18,63.31-2.75,16.65-5.4,30.69-5.88,31.2s-.86-12.89-.86-29.82c0-53-9.16-102.29-19-102.29-5.61,0-8.31,45.31-5.15,86.34,1.33,17.17,2.77,34.89,5,61.67,5.35,63.74,3.3,128.44-5.75,181.59-7,41-8.77,47.29-47,162.37-17.24,51.92-32.35,97.51-33.57,101.3-2.7,8.31-3,18.88-.44,18.88,4.62,0,17-17.08,47.19-65l4.93-7.82-1.51,6.7c-2.47,10.8-12.86,39.85-28.44,79.6-16.71,42.64-26.27,63.55-36.73,80.21-8.19,13-9.16,17.93-4,19.92,6.09,2.34,12.44-6.38,28-38.46,17.69-36.36,29.46-66.07,54.71-137.9,4.12-11.72,8.2-23,9.08-25.2,1.91-4.71,5.62-3,5.62,2.55,0,2.2,3.19,10.37,7.08,18.15,7.69,15.38,7.69,15.8-.26,55-3.95,19.49-50.09,105.67-86.82,162.23-12.48,19.22-14.14,26.1-6.31,26.1,3.11,0,8.31-5.78,17.12-19,18.18-27.42,49.25-81.24,67.54-117,8.68-17,16.57-30.36,17.51-29.77,3.49,2.16,4.6,19.19,2.07,31.76-5.29,26.29-19,59.21-31.16,74.63-16.52,21-34.84,40.55-46.58,49.61-8.86,6.84-12,10.7-11.5,14.09.37,2.57,2.21,5,4.06,5.32,5.13,1,30.37-21.25,50.39-44.34l17.89-20.66,2.6,6.4c4.13,10.35,8,49.55,7.21,72.56l-.73,21.3-6.74.61c-29.55,2.63-72.44,15.52-121.09,36.38a507.49,507.49,0,0,1-101,31.34c-27.62,5.35-95.15,7.84-124.37,4.62-23.54-2.6-60-10.29-85.18-18-28.08-8.59-55.09-13.49-74.81-13.52-8.8,0-18.06-.59-20.52-1.26-5.69-1.53-36.39-61.52-33.71-65.86s17.05-1.9,59.51,9.77c30.33,8.34,79.14,20.59,97.53,24.46,15.15,3.18,26.53,5.42,52.73,10.33,30.1,5.64,117.36,13.66,148,13.61,21.87,0,70.26-5.75,76.4-9,3.63-1.94,4.17-3.22,2.21-5.19-3-3-29.15-2.49-40.71.82-10.29,3-33.24,2.77-46.29-.38C629,1071.12,561.7,1046,512.66,1023c-12.14-5.68-22.48-10.33-23-10.33-2.06,0-45-25.49-60-35.65-24.61-16.64-51.58-46.37-68.45-75.37-7.88-13.54-19.69-33.75-26.23-44.9-28.48-48.52-36.71-84-19.49-84,4.86,0,10.34,4.25,25.28,19.67,15.81,16.32,22.26,25.4,37.86,53.24,23.91,42.68,43.82,72.68,62.83,94.68,15.95,18.48,24.89,23.29,24.89,13.4,0-3-2.18-7.33-4.79-9.68-5.81-5.21-24.38-29.09-24.38-31.33,0-.89,5.28,3.39,11.76,9.51,53.49,50.52,142.08,92.63,224.8,106.87,55.21,9.5,59.42,9.82,59.42,4.84,0-1.85-.52-3.37-1.16-3.37-4.15,0-37.23-10-45.72-13.79-26.06-11.7-46.55-22.93-50.65-27.74-2.47-2.9-11.55-10-20.19-15.77C533.63,918.46,436.61,806.9,385.52,708.87c-7.72-14.8-16.24-29.09-19-31.77-10.21-10-31-86-41.18-151C311.12,435.6,308.54,323,318,205.54c1.39-17.33,2-19.24,7.13-21.7,3.08-1.48,31.3-11,62.75-21.22s61.38-20.35,66.51-22.6,10.7-3.55,12.36-2.85,7.35,6.72,12.66,13.35c11.76,14.67,35.08,33.86,52.77,43.43,29.07,15.74,65.57,22.62,97.23,18.28,58.28-8,101.51-37.54,132.2-90.32,5.55-9.56,10.38-17.37,10.71-17.37ZM271.94,211.42c3.15-.56,3.29,3.39.09,11.53-3.95,10.07-9.16,12.15-14.43,5.79-2.6-3.12-1.83-4.62,5.57-11.4,3.94-3.61,6.89-5.59,8.77-5.92ZM249,239.07c1,0,4.45,2.32,7.69,5.1l5.88,5.06-3.41,14.56c-1.88,8-4,18.33-4.71,22.95s-2.14,8.43-3.07,8.43c-2.11,0-16-14.22-16-16.38,0-.87,1.4-1.56,3.12-1.56,4.26,0,6-5.19,7.47-23,.71-8.32,2.09-15.17,3.07-15.17ZM995.5,259.26c2.94,0,9,28.66,12.06,56.61,2.59,24,3.32,26.57,8.77,30.85,7.72,6.08,10.51,16.57,8.21,31.08-1.61,10.2-.88,14.33,6.1,34.53,20.37,59,48.22,152.46,46.06,154.49s-21.41,7.74-60.8,17.77c-19,4.83-35.91,8.81-37.56,8.81-3.66,0-3.83-11.25-.86-57.56,1.17-18.29,2.65-83.49,3.28-144.86l1.17-111.58,5.88-10.07c3.24-5.54,6.71-10.07,7.69-10.07Zm-52.2,11.66c5.75,0,7.36,3.58,7.09,13-.2,6.64-2.46,9.91-14.66,21.22L921.34,318.5l1.43-10A169.28,169.28,0,0,1,926,291.8c1-3.7,2.46-9.46,3.2-12.8,1.06-4.8,3-6.4,9.42-7.6a24.3,24.3,0,0,1,4.67-.48ZM228.12,295.38c1.56,0,4.82,2.46,11.23,8.22l11.85,10.63-2.6,8.94c-2.66,9.3-1.89,56.26,2.34,143.52,1.13,23.43,3.13,68.12,4.4,99.31s2.89,57.6,3.59,58.73-.73,3.11-3.15,4.41c-10.75,5.74-75.11-.73-81.29-8.17-1.45-1.75-2.59-7.91-2.55-13.7,0-6.32-1.32-12.12-3.37-14.48-2.91-3.34-3-5.33-.61-13.44,5.86-19.87,22.47-39.6,45.68-54.28,7.16-4.53,13.58-9.68,14.26-11.45,3-7.73-2.61-16.43-23.9-37.16l-22.21-21.61,2.33-8.65c1.29-4.76,5.28-19.16,8.86-32s6.53-26,6.53-29.21c0-8.54,5.92-15.62,17.07-20.4,11-4.7,12.24-8.88,6.31-20.35-3.17-6.13-3.15-8.55,0-25.11,1.89-10.08,3.71-20.08,4.06-22.21.15-1,.5-1.51,1.21-1.52Zm739.12,6.83a.57.57,0,0,1,.43.18c1.91,1.9-3.82,292.4-5.92,300.35-2.4,9.06-11.75,18.15-23.94,23.25-4.32,1.8-9.79,3.28-12.19,3.28-4.25,0-4.33-1.7-2.85-71.22,1.29-60.59,2.17-73.67,6-88,6.82-25.78,9.83-38,12.92-52.72,1.56-7.4,3.6-16.48,4.58-20.18s3.46-16.29,5.49-28,4.68-25.56,5.84-30.73a92.09,92.09,0,0,0,2.11-16.34c0-6.27,5.31-19.81,7.57-19.87ZM949,309.73l-1.26,6.74c-.69,3.7-1.9,11.26-2.68,16.81-2.55,18.19-18.27,94.16-19.79,95.68-.48.48-1.48-2.22-2.25-6s-2.4-6.33-3.63-5.57S916.17,422,915,425.9c-2.74,9.49-3-37.65-.39-60.55,1.64-14.09,3.15-18,12-30.29,5.57-7.77,12.89-16.63,16.25-19.71l6.1-5.62Zm130.72,271c2-.16,3.34,1.35,4.15,4.58.76,3,2,7,2.68,8.86.87,2.26-.89,4.56-5.19,6.78-10.74,5.56-47.29,17.1-72.34,22.86-27,6.22-35.87,6.82-35.87,2.42,0-1.68.63-7.57,1.39-13.09,1.24-9.05,1.86-9.94,6.61-9s31.59-4,46.93-8.6c3.7-1.12,15.82-4.61,26.92-7.78s21.84-6.29,23.86-6.87a3.9,3.9,0,0,1,.86-.13Zm-800.86,1.77s.07,0,.13,0c.86.8,5.11,13.89,9.46,29.13s8.47,29.47,9.12,31.63c.84,2.79-.09,3.93-3.15,3.93-8,0-12.3-5.3-12.88-15.81-.31-5.48-1.35-19.07-2.34-30.17C278.24,590.82,278.12,582.78,278.82,582.47Zm679.82,48.62c.67-.1,1,0,1,.26,0,3.59-11.55,15.92-18.1,19.31-7.59,3.93-19.13,4.3-21.35.69-1.77-2.85,4.85-8.64,9.89-8.64,1.77,0,9.14-3,16.38-6.7,5.44-2.76,10.14-4.63,12.15-4.92Zm-649.4,53.28c.55,0,1.09,1.23,1.9,3.2,3.61,8.72,11.26,29.71,12.84,35.31.78,2.77,1.08,5,.69,5s-5.58-4.59-11.54-10.07l-10.85-10,3.29-12.92c1.91-7.54,2.77-10.58,3.67-10.5Zm37.25,56.27c.85.28,4.84,6.28,10.07,15.3,30.72,52.9,60.75,88.24,103.07,121.26,24.19,18.87,42.61,36.87,42.61,41.66,0,8.71-20.29,1.8-48.7-16.6-22.62-14.64-33.58-27-53.63-60.24-10-16.51-22.36-36.89-27.53-45.29-9.09-14.77-22.7-43.86-25.93-55.36-.16-.57-.15-.8,0-.73ZM289,838.91,293.25,849c24.85,59.35,55.81,109.24,79.56,128.18,9.77,7.79,72,39.95,77.32,40,2.23,0,31.79,12.15,40.14,16.47,3.67,1.89,8,5,9.6,7,4.21,5.07,1,4.34-33.5-7.13-26.56-8.85-88.39-34.93-129.51-54.67-15.1-7.25-28.81-13.18-30.47-13.18s-4.89-5.61-7.22-12.45c-4.22-12.42-4.24-12.48.74-26.36,6.91-19.28,6.46-31.54-1.82-49.22-3.74-8-7.28-19.94-7.91-26.58L289,838.91Zm14.43,137.9c.55,0,14,6.35,29.82,14.09l45.64,22.3c19.43,9.49,19.11,9.61-7.87,2.94-30.38-7.52-49-10.65-58.6-9.81l-8.64.78-.69-15.17c-.37-8.33-.21-15.13.34-15.13Z" style="fill-opacity:0.071065999567509"/><path id="path1949" d="M487.54,55.68a12.19,12.19,0,0,0-1.47,0H486a7.79,7.79,0,0,0-1.34.17h-.17c-6.16,1-15.34,5.4-30.86,14.52C424.44,87.56,333,119.92,288.44,128.84c-25.73,5.16-42.21,11.9-55.79,22.82-10.37,8.33-26,31.09-32.93,47.88-7.09,17.23-16.29,49.21-16.29,56.57,0,4.07-2.94,10.36-7.65,16.46-8,10.34-12.52,23-12.54,34.88,0,3.86-1.41,8.2-3.15,9.64-6.85,5.68-10.57,18.41-11.5,39.37-.74,16.84-2.79,26.77-9.89,48.7-20,61.65-33.81,115-37.13,143.05-.47,4-1.21,14.43-1.85,26,0,.51-.06,1-.09,1.47-.34,5.08-.65,10.12-.82,14.74-.19,5.34-.29,9.51-.35,13.05-.13,8.06.12,12.19,1,14.56a1.16,1.16,0,0,1,0,.18c1.48,5,4.64,6.19,10.59,7.43,3.92.82,12.67,3.82,19.45,6.65,12.59,5.27,35.78,12.49,53.84,16.81,5.55,1.33,25.7,3,44.82,3.72,32.49,1.21,35.15,1.63,40.45,6.57a44.42,44.42,0,0,0,13.14,7.91,24.22,24.22,0,0,1,4.79,2l.05,0a6.1,6.1,0,0,1,1.51,1.77c.59,1.5.29,3.73-.35,7.69a143.23,143.23,0,0,1-6.09,21.57,166.75,166.75,0,0,0-6.78,26.1c-2.37,14.76-.83,44.67,3,57.43,2,6.71,1.64,10.23-2,20.19-11.76,31.86-11.24,53.52,1.9,81.28,7.7,16.29,8,22.18,2,36.18-5.06,11.79-5.88,30.35-1.69,37.72,1.9,3.34,3.22,22.7,4.15,60.94,1.16,47.31,2.13,59.34,6.4,77,4,16.77,5.55,24,13.09,26.79l.13,0a16.74,16.74,0,0,0,7.87,1.42c5.91.4,13.92,0,25.36-.39,40.66-1.54,62.21,1.12,103.29,12.71,31.05,8.75,45.48,11.81,72.34,15.43,2.54.34,7.21.68,13,1a9.18,9.18,0,0,1,2.59.78c.73.72,15.77.76,35.18.43h.52c3.45,0,6.93.06,10.37.09,80.1.55,114.66-6.18,190.58-37.17,59.1-24.12,79.5-30.24,113.61-34.05,9.91-1.11,19-3,20.23-4.19,9.9-9.91,7.35-98.68-3.59-124.85-3.13-7.49-2.95-8.79,3.07-23.38,11.25-27.28,14.41-40.64,14.39-60.81,0-15.46-1-21-5.14-29-5.67-10.94-5.61-13.49,1.21-48.35,3-15.28,4-32,4.1-68.85l.13-48.48,2.16-.13h11.58c16.37,0,28.26-4.49,38.94-14.74,7-6.68,10.66-8.08,32.89-12.27,44.3-8.37,97.73-26.49,106.83-36.26a13.23,13.23,0,0,0,2.46-3.33.59.59,0,0,1,0-.08,7.13,7.13,0,0,0,1.3-4,47.24,47.24,0,0,0-1.25-7.13c-.6-3.77-1.56-8.66-2.94-15.56-4.1-20.52-34.86-122-51-168.15-6.84-19.59-7.64-24.15-6.4-36,1.72-16.38-1.29-28.67-9.85-40.5-4.94-6.82-6.68-12.28-7.82-24.46-2.73-28.93-20-96.55-29.31-115-17.07-33.62-42.59-49.1-131-79.39-63.36-21.71-88.88-32.22-106.31-43.9-9-6-18.13-11.63-20.36-12.45s-9.5.8-16.81,3.85C699.08,77.5,656.73,83.89,611.69,84c-48.14.1-74.43-5.88-120.4-27.4a10,10,0,0,0-3.76-.91Zm-4.33,19.44s0,0,.05,0l0,0L494,93.57c13.54,23.31,45.57,55.8,65,66a149.37,149.37,0,0,0,30.25,10.93c14.5,3.3,18.7,3.41,31.33,1,17.78-3.46,37.73-12.17,55.27-24.16,13-8.87,45.93-41.45,57.09-56.43l5.79-7.74,10.41,6.61c6.47,4.09,10.46,8.25,10.46,10.89,0,6.1-13.52,29.31-26.23,45q-35.77,44.15-93.17,56.09c-68.62,14.32-141.47-22.9-175.89-89.84-9.88-19.22-9.58-20.45,7.43-30.25l11.41-6.53ZM501,84.54c1.93.12,8.74,2.14,16.46,4.93,27.89,10.06,40.58,12.81,73.77,13.4,12.89,1.34,21.14,1.34,37,0,36.43-.65,60.15-3.56,82.11-9.86,4.18-1.19,8-1.78,8.47-1.29s-5.51,7.61-13.31,15.82c-14.37,15.11-15.28,15.56-41.1,21.43-13.64,3.1-69.63,4.43-88.37,2.07a253.72,253.72,0,0,1-34.88-7.69c-18.23-5.56-18.34-5.58-29.95-21.65-6.4-8.86-11.19-16.55-10.67-17.07a.82.82,0,0,1,.52-.09Zm-55.45,13.1s0,0,.05,0L455.17,116c7.63,14.68,14.54,23.42,34.27,43.26,20.13,20.26,28,26.55,42.65,34C576.5,215.78,618,219.16,663.68,204c41.47-13.83,77.43-45.68,99.44-88.12,4.44-8.56,7.19-11.66,9.77-10.85,2,.62,13.22,4.89,24.93,9.42s42.86,15.67,69.23,24.77c87.77,30.26,108.49,44.72,121.4,84.66l4.36,13.44c0,.47.05.95,0,1.38a5.87,5.87,0,0,1-.17,1.17l-9.9,17.71c-5.78,10.3-12.9,21.63-15.81,25.2-5.16,6.31-5.33,6.36-5.4,1.34-.1-5.79-6.1-18.66-9.9-21.18s-15.93-2-18.89,1c-5.63,5.63-3.06,8.64,6.1,7.17,7.35-1.17,9.13-.66,11.19,3.2,3.69,6.89,3.17,22.82-.73,22.82-1.76,0-9.21,6.64-16.56,14.78s-13.9,13.95-14.56,12.88c-1.18-1.91.55-12.1,6.22-36.65C926,281.31,926.8,275,926.22,274c-2.54-4.36-8.85,6.12-11.5,19.1-6.77,33.13-7.8,39.6-10.63,66.46-1.25,11.88-5,102.61-7.61,184.19-1.24,38.85-3,77.21-4,85.22-1,8.34-10,39-21.09,71.74-10.64,31.45-22.61,67.27-26.58,79.6C827.4,834.42,797,909.07,782,934.3c-4.87,8.23-8.86,15.58-8.86,16.38s2.15,1.13,4.8.73c10.65-1.58,41.51-70.73,75.85-170,2.77-8,8.41-23.14,12.53-33.62S877,719.41,880.92,708s8-20.16,9.08-19.49c2.77,1.71,2.46,62.93-.43,86-6.44,51.49-10.69,66.4-29.3,102.77-18.09,35.34-39,71.93-64.18,112.23-9.89,15.83-13.76,23.93-12.19,25.5a4,4,0,0,0,4.63.86c5.85-3.62,59.61-95.4,82.76-141.28,13.23-26.22,14.92-28.56,17.67-24.8,5.06,6.91,4.75,28.59-.65,48.14-5.68,20.59-18.89,49.75-28.43,62.79-5,6.78-20,23.18-33.45,36.43-23.4,23.07-29.61,33.42-14.87,24.72,7.22-4.26,40.54-37.91,53.89-54.41l8.17-10.11,2.51,6.4c4.49,11.6,8,42.44,8.86,66.85,0,.2,0,.4,0,.61,0,1.86-.08,3.71-.13,5.57l-.57,21.48v0c-.42,2.61-1,4.41-1.72,5.14-1.48,1.48-6.08,2.68-10.2,2.68-21,0-62.66,12.58-117.16,35.35-50,20.91-89.76,31.59-134.92,36.35-19.56,2.06-64.8,2.51-82.58.82-28.62-2.72-65.73-10.41-101.26-21-28.63-8.51-67.67-13.73-99.05-13.27-13.35.2-25.12-.52-26.14-1.6-4.33-4.54-8.94-47.14-9.81-90.62-.75-37.16-1.72-48.28-5-57.56-1.93-5.44-2.95-8.38-2.94-11.45,0-.44.06-.9.09-1.34,0-.11,0-.21,0-.31.35-3,1.57-6.49,3.72-12.62,7-19.81,6.43-31.58-2.25-50.26-9.78-21.06-10-39.05-.86-66.42l6.52-19.57L297,777.2c-5.5-22.79-4.87-45.44,1.86-66.64,3.08-9.71,6.2-20.95,7-25,1.6-8.49,4.34-9.53,6-2.29,3.34,14.06,29.17,84.4,39,106.14,19.45,43.11,54.69,103.86,78.61,135.48,10,13.19,29.52,33.62,32.15,33.62,4.83,0,1.31-7.33-9.38-19.49-6.3-7.16-15.76-19-21-26.45-23.37-33-69.73-121.58-88-168.18-7.51-19.13-21.91-63.08-35.27-107.61-3.33-11.1-6.93-22.72-8-25.8-7.81-22.74-19.33-92.25-17.07-103,.66-3.17-.2-14.33-1.9-24.81-8.21-50.51-9.71-105-4.28-152.47,6-52.6,6.21-62.59,1.55-75.06-3.19-8.55-6.53-12.71-14.21-17.81-5.53-3.65-10.82-8-11.8-9.59-2.64-4.31-12.31-3.54-14.83,1.17-1.19,2.24-2.51,10.56-2.93,18.49s-1.74,14.36-2.94,14.31C228.18,262.07,212,234,212,228.28c0-7.85,9.4-29.56,18.93-43.77,13.6-20.28,26.15-28.17,54.54-34.32,40.85-8.84,114.49-32.25,147.32-46.84l12.79-5.71Zm100.35,38.55a32.56,32.56,0,0,1,5.44.73,145.12,145.12,0,0,1,15.48,3.85c11.43,3.61,81.92,3.31,92.65-.39,4.71-1.63,9.09-2.45,9.72-1.82,1.65,1.65-17.37,12.42-31.2,17.68-13.58,5.17-39.22,7.1-51.86,3.93-10.82-2.72-33.43-14.62-38.59-20.31-2.32-2.57-3.15-3.6-1.64-3.67ZM248.72,239.26c5.6.21,17.17,13.26,19.88,22.94,2.61,9.31,1.69,34.63-1.56,43.09-.62,1.63-1.8,3-2.59,2.94-4.1-.12-23-14.1-29.13-21.57-8.69-10.54-9.18-14.9-1.47-13,6.7,1.68,7.48.14,9.64-19.23.87-7.82,2.77-14.61,4.19-15.08a2.73,2.73,0,0,1,1-.13Zm747.11,16.59c.81.05,1.33,1.26,2.08,3.24,4.18,11.08,10.45,44.11,12,63.1,1.4,17.66,2.13,20.05,7.91,25.19,7.93,7.07,9.65,13.65,8.08,31-1.12,12.36-.06,17,11,49.65,10.62,31.27,42.89,136.05,43.39,140.8a2.6,2.6,0,0,1,0,.39c-1.83,2-31.48,11.61-49.22,15.86-8,1.92-18.11,4.43-22.43,5.57s-12.64,3.28-18.5,4.76c-10.94,2.74-14.87,8.81-5.7,8.81,6.47,0,46.35-9.82,74.37-18.32,12.18-3.69,22.85-5.87,23.77-4.84s2.87,5.41,4.32,9.72c2.36,7,2.13,8.24-2,11.58-6.26,5.1-47.3,18.55-77.4,25.37-13.57,3.08-27.49,5.61-31,5.62l-6.31,0,1.21-18.49c2.84-43.88,4.25-97.82,5.54-212.5l1.38-121.61c.23-.54.49-1.11.78-1.73l7.95-12.18c5.28-8,7.43-11.15,8.77-11.07ZM203,259c.93,0,4.18,4.78,7.26,10.63,5.61,10.64,29.7,35.36,46.37,47.63l8.82,6.52-1.94,18.63c-2.18,20.56-.36,94.25,3,120.61,1.17,9.25,3,29.95,4.15,46s3.11,35.21,4.36,42.6c2.66,15.74,14.08,60.36,20.7,80.86,2.54,7.86,4,15.33,3.2,16.6-3,4.87-11.13,2-19.32-6.87-9.09-9.86-10.29-10.15-32.32-7.57-1.16.14-2.38.25-3.59.35l-10-.09c-5.11-.06-9.41-.14-13.36-.21-26.52-2.31-59-10.8-91.92-24.38-11-4.56-13.54-6.61-14.13-11.41-.42-3.43.57-6.3,2.38-7s13.49,2.44,26.23,6.87c16.5,5.75,23.87,7.38,25.58,5.66,4.37-4.36-5.71-11-28.56-19-11.27-3.92-20.79-7.42-22.39-8.21a6.4,6.4,0,0,1-.43-.82c-.06-5.67,7.72-48,12.66-68.41,6.18-25.5,24-86.1,29.09-99.1,5-12.56,11.05-46,11.06-60.58,0-7.87,1.41-12.13,5.57-17.07,7.4-8.79,10.16-16.64,10.16-28.87,0-8.36,1.36-11.77,7.82-19.32,5.55-6.49,7.87-11.33,7.87-16.59,0-4.1.76-7.44,1.68-7.44Zm765.77,40.42a.62.62,0,0,1,.39.18c1.65,1.65-2.72,287.17-4.58,299.09-2.07,13.25-6.86,19.9-20.23,28-9.25,5.61-15.42,7.55-27,8.47l-15,1.21L904,627.6c3.08-17.7,5.84-100.44,5.7-171.31-.13-69.35,1.88-100.28,7.18-110.29,4.08-7.72,29.08-37.72,31.41-37.72,1.62,0,1.93,4,1,11.8C945,354.62,928.4,433.76,922.4,448.43c-1.52,3.69-4.61,14-6.92,23-3.36,13.08-3.65,16.81-1.38,19.05s3.4,2,5.7-1.08,11.56-38,23.82-90.27c3.51-15,8.28-41.55,11.1-61.67,1.47-10.49,3.09-21.09,3.59-23.55,1.06-5.21,8.18-14.79,10.5-14.53Zm-9.46,329.56c8.18,0-7.68,21.11-19.62,26.1-7.08,3-15.15,3.52-24.21,1.6l-9.55-2c-8.71-1.86-6.11-7.73,3.42-7.73,9.35,0,27.94-6.19,40-13.31,4.31-2.55,8.77-4.63,9.94-4.63ZM363.4,683.05c-4.82-.26-3.15,6,6.35,25,51.83,103.68,148.51,215.84,240.81,279.3,15.61,10.74,28.39,12.88,21.82,3.67-.91-1.27-12-9.65-24.68-18.62-30.36-21.53-46-34.59-75.32-63-56.77-55.05-114-130.89-149.78-198.49-8.69-16.41-15.72-27.2-18.11-27.66a9.28,9.28,0,0,0-1.08-.13ZM306.74,971.6c-1.68.14-2.24,1.11-2.24,2.77,0,2.54,35.32,20.44,72.47,36.73,15,6.58,34.37,15.33,43,19.41s26.29,11.14,39.24,15.77c23.94,8.55,37,10.14,37,4.49,0-.59-1.09-1.45-2.94-2.5l-.08-.09a8.79,8.79,0,0,0-3-1.56l-.13,0a227.27,227.27,0,0,0-21.87-8.3c-32-10.72-84.63-32.7-129.21-53.93-19.51-9.29-28.5-13.05-32.2-12.75Z"/></g></svg>