<svg xmlns="http://www.w3.org/2000/svg" viewBox="0 0 1200 1200"><defs><style>.cls-1{fill:#f7f6f5;}.cls-2{fill:#f0f0f0;}.cls-3{fill:#d7d7d7;}.cls-4{fill:#616161;}.cls-5{fill:#858585;}.cls-6{fill:#939393;}.cls-7{fill:#676767;}.cls-8{fill:#383838;}</style></defs><g id="Background"><rect class="cls-1" width="1200" height="1200"/></g><g id="Graphic_Elements" data-name="Graphic Elements"><g id="layer1"><path id="path1951" class="cls-2" d="M513.18,1137.92c-3.63-1-12-1.89-18.7-2s-23.48-3.33-37.38-7.06-32.22-8.66-40.68-10.92c-26.05-7-63.68-9.86-87.47-6.74-11.28,1.48-22.24,2-24.33,1.22-5.64-2.16-9.94-12-15.21-34.61-4-17.21-4.73-27.54-5-69.69-.2-41.7-.86-51.31-4.25-61.11-4.44-12.89-3.69-26.71,2-37.77,5.09-9.86,4-20.1-3.82-36.66-6.5-13.73-7.15-17-7.15-36,0-16.09,1.22-24.57,5.27-37,4.9-14.93,5.06-17,2.38-28.59-4.1-17.75-3.52-54,1.07-66.39,5-13.57,9.91-31.09,9.95-35.69,0-2.24-2.94-5.08-7.12-6.85a37.77,37.77,0,0,1-11.34-7.73c-3.72-4.18-6.53-4.71-25.29-4.74-38.44-.08-87.13-10-116.76-23.84-5.44-2.54-12-4.64-14.47-4.66-8.61-.09-10.34-8.05-8.91-41.06,1.7-39.37,4.07-58.86,10.11-83.23,6.62-26.75,18.61-67.76,27.76-95,5.49-16.33,7.88-27.95,8.81-42.89,1.51-24,3.45-31.42,10.84-41.44A26.54,26.54,0,0,0,169,301.67c0-10.16,5-22.78,11.92-30.28,3.05-3.3,5.61-9.48,6.38-15.4,2.47-19.19,14.1-52.76,25.14-72.57,16.55-29.7,39.17-44.54,80.25-52.62C336.4,122.21,420.2,92.58,453,74.13c9.25-5.21,18.35-9.46,20.22-9.46a6.11,6.11,0,0,0,4.76-2.2c1.76-2.85,11.43-2.85,13.2,0,.74,1.21,3.16,2.2,5.34,2.2s8.82,2.14,14.72,4.74c17.63,7.81,46.42,14.84,71.56,17.48,38.4,4,107.83-4,134.91-15.63,5.63-2.42,12.67-4.4,15.65-4.4s12.82,5,21.85,11.1c22.25,15,30.38,18.35,123,50.52C900,136.05,926,146.24,936,151.14c29.21,14.34,50,35.83,58.83,61,7,19.72,20.79,77.15,23.33,97,2.14,16.75,3.81,22.05,9.41,30,6.36,9,6.89,11.3,8.07,34.22,1.13,22.05,2.41,27.94,12.56,57.55,17,49.54,40.14,127.86,42.63,144,1.2,7.86,2.7,17.4,3.32,21.2,1.83,11.21-4,17.25-23.67,24.78A494.67,494.67,0,0,1,989,644.29c-24.41,5-27.94,6.28-34.85,13-9.38,9.15-23.16,14.3-38.24,14.3h-11.3l-.32,46.74c-.29,39.65-1.14,50.87-5.7,74.13l-5.35,27.4,5.49,12c10,21.93,6.68,53-9.74,90.18-5,11.39-5.15,12.54-2.12,22.08,6.69,21,8.64,37.62,8.81,75,.21,48.36-.14,49.18-22.54,51.39-30.85,3-62.46,12.38-112.52,33.24-47.44,19.77-76.19,28.55-105.56,32.2-22.95,2.85-132.75,4.31-141.84,1.9Zm136.24-22.15a499.11,499.11,0,0,0,99.06-30.72c47.72-20.47,89.77-33.11,118.76-35.68l6.59-.6.74-20.89c.79-22.57-3-61-7.09-71.16L865,950.44l-17.56,20.25c-19.64,22.65-44.42,44.43-49.44,43.48-1.82-.35-3.61-2.68-4-5.21-.47-3.32,2.59-7.08,11.29-13.78,11.51-8.89,29.48-28,45.69-48.67,11.87-15.13,25.35-47.43,30.53-73.21,2.48-12.33,1.38-29-2-31.16-.91-.57-8.63,12.58-17.14,29.2-18,35.06-48.44,87.88-66.27,114.76-8.63,13-13.71,18.69-16.76,18.69-7.68,0-6-6.74,6.19-25.6,36-55.47,81.26-140,85.12-159.13,7.8-38.42,7.8-38.81.26-53.9-3.81-7.63-6.93-15.63-6.93-17.79,0-5.48-3.62-7.13-5.49-2.51-.86,2.1-4.87,13.24-8.9,24.73-24.76,70.44-36.33,99.57-53.68,135.24-15.3,31.47-21.54,40-27.52,37.72-5.08-1.95-4.12-6.75,3.91-19.53,10.25-16.34,19.65-36.85,36-78.66,15.29-39,25.46-67.49,27.87-78.07l1.51-6.6-4.84,7.7c-29.6,47-41.75,63.77-46.28,63.77-2.45,0-2.24-10.37.41-18.54,1.21-3.72,16-48.42,32.93-99.33,37.47-112.86,39.24-119,46.09-159.23,8.88-52.13,10.89-115.6,5.64-178.12-2.21-26.27-3.62-43.64-4.93-60.47-3.09-40.25-.44-84.67,5.06-84.67,9.62,0,18.58,48.33,18.58,100.29,0,16.6.38,29.77.86,29.27s3.06-14.27,5.76-30.6c7.61-46.1,9.67-52.56,19.79-62.1,7-6.6,10.48-8.27,17.24-8.27,9.42,0,13.62,3.48,18.38,15.24l3,7.54L964.32,269C980.12,244,981,241.7,978.17,231.21c-4.09-15.35-15.41-34.35-26.09-43.75-13.8-12.14-38.42-23.57-87.3-40.54-22.84-7.92-47.47-16.48-54.72-19s-20-7.4-28.34-10.83-15.42-6.24-15.76-6.24-5.05,7.66-10.51,17c-30.09,51.76-72.5,80.73-129.65,88.54-31.06,4.26-66.87-2.47-95.38-17.9-17.34-9.4-40.21-28.23-51.75-42.62-5.21-6.49-10.8-12.38-12.43-13.06s-7.08.57-12.09,2.78-34.38,12.2-65.23,22.18-58.55,19.35-61.57,20.8c-5,2.42-5.63,4.28-7,21.27-9.24,115.23-6.7,225.64,7.26,314.4C337.64,588,358,662.56,368,672.35c2.68,2.62,11.06,16.64,18.63,31.16,50.12,96.14,145.26,205.55,225.51,259.34,8.46,5.68,17.37,12.64,19.79,15.49,4,4.72,24.12,15.73,49.68,27.21,8.34,3.74,40.78,13.53,44.85,13.53.62,0,1.14,1.49,1.14,3.3,0,4.89-4.14,4.55-58.28-4.76-81.13-14-168-55.27-220.46-104.83-6.35-6-11.56-10.19-11.56-9.32,0,2.21,18.24,25.64,23.93,30.74,2.57,2.3,4.66,6.57,4.66,9.5,0,9.7-8.76,5-24.4-13.14-18.65-21.58-38.16-51-61.61-92.85-15.29-27.31-21.63-36.22-37.15-52.23-14.65-15.12-20-19.31-24.79-19.31-16.89,0-8.81,34.8,19.12,82.39,6.42,10.93,18,30.75,25.72,44,16.54,28.45,43,57.57,67.16,73.9,14.73,10,56.81,35,58.83,35,.5,0,10.65,4.56,22.56,10.13,48.1,22.53,114.13,47.19,148.67,55.51,12.8,3.1,35.3,3.29,45.39.4,11.34-3.26,37-3.79,39.92-.82,1.92,1.93,1.41,3.16-2.14,5.06-6,3.22-53.5,8.84-74.95,8.87-30,.06-115.62-7.84-145.15-13.37-25.69-4.8-36.82-7-51.67-10.11-18-3.79-65.92-15.78-95.67-24-41.64-11.45-55.76-13.77-58.35-9.59s27.49,63.1,33.07,64.61c2.41.65,11.46,1.19,20.1,1.22,19.32,0,45.81,4.81,73.36,13.24,24.65,7.54,60.47,15.11,83.56,17.66,28.65,3.16,94.87.69,121.95-4.56Zm-150.65-86.94c-1.58-1.88-5.81-5-9.4-6.82-8.19-4.23-37.2-16.1-39.39-16.11-5.25,0-66.24-31.59-75.83-39.23-23.28-18.58-53.66-67.51-78-125.72L292,831.06l1.12,11.84c.63,6.51,4.13,18.26,7.79,26.08,8.12,17.35,8.56,29.38,1.78,48.29-4.87,13.61-4.89,13.65-.74,25.83,2.28,6.72,5.47,12.21,7.1,12.21s15.06,5.82,29.87,12.92c40.34,19.37,100.94,45,127,53.64,33.8,11.26,37,11.94,32.88,7ZM380.14,1002l-44.76-21.86c-15.54-7.6-28.7-13.81-29.24-13.81s-.68,6.67-.33,14.84l.65,14.85,8.49-.75c9.44-.81,27.68,2.23,57.48,9.6,26.46,6.54,26.76,6.43,7.71-2.87Zm121-92.51c0-4.71-18.07-22.38-41.79-40.88-41.5-32.39-70.93-67-101.07-118.9-6.32-10.88-10.79-17.32-9.94-14.3,3.16,11.29,16.53,39.81,25.46,54.31,5.07,8.23,17.21,28.22,27,44.41,19.67,32.61,30.45,44.72,52.62,59.08C481.2,911.23,501.09,918,501.09,909.47ZM326.25,717.26c-1.55-5.49-9-26.1-12.56-34.64-2.11-5.14-2.48-4.67-5.48,7.17L305,702.46l10.62,9.78c5.84,5.38,10.94,9.83,11.34,9.87s.06-2.14-.71-4.85ZM932,646.41c6.43-3.33,17.74-15.38,17.74-18.91,0-1.1-5.81,1-12.91,4.57s-14.34,6.57-16.08,6.57c-5,0-11.43,5.65-9.69,8.46C913.2,650.62,924.51,650.26,932,646.41Zm-631.64-7.22c-.64-2.13-4.65-16.08-8.93-31s-8.44-27.81-9.29-28.59-.76,7.49.22,18.37,2,24.19,2.29,29.56c.57,10.31,4.82,15.52,12.63,15.52,3,0,3.91-1.11,3.08-3.84Zm-40.93-13.86c2.37-1.27,3.75-3.21,3.06-4.31s-2.25-27-3.51-57.63S255.77,489,254.65,466c-4.15-85.59-4.89-131.64-2.29-140.75l2.54-8.79-11.61-10.42c-9.14-8.2-11.73-9.59-12.22-6.59-.34,2.09-2.14,11.9-4,21.78-3,16.25-3,18.62.07,24.63,5.82,11.26,4.56,15.36-6.2,20-10.93,4.68-16.75,11.63-16.75,20,0,3.15-2.87,16.05-6.39,28.66s-7.42,26.73-8.68,31.41l-2.3,8.49,21.76,21.2C229.47,495.93,235,504.45,232.06,512c-.67,1.73-7,6.79-14,11.23-22.76,14.4-39,33.76-44.79,53.25-2.35,7.94-2.26,9.91.59,13.19,2,2.31,3.33,8,3.28,14.19,0,5.67,1.09,11.73,2.52,13.44,6.06,7.31,69.18,13.64,79.72,8Zm668.89-3.11c12-5,21.13-13.9,23.48-22.78,2.06-7.8,7.66-292.68,5.79-294.55s-7.85,12.72-7.85,19.28a90.42,90.42,0,0,1-2.06,16.06c-1.14,5.07-3.71,18.62-5.7,30.11s-4.42,23.86-5.38,27.49-3,12.53-4.52,19.79c-3,14.4-6,26.41-12.67,51.69-3.71,14-4.58,26.88-5.84,86.31-1.46,68.18-1.4,69.82,2.78,69.82C918.65,625.44,924,624,928.28,622.22Zm69.81-2.14c24.56-5.64,60.42-17,71-22.43,4.2-2.18,5.93-4.44,5.07-6.65-.7-1.84-1.88-5.76-2.63-8.72-.91-3.62-2.51-5-4.94-4.32l-23.38,6.7c-10.89,3.12-22.77,6.56-26.39,7.66-15,4.56-41.21,9.34-46,8.42-4.65-.88-5.29,0-6.51,8.87-.75,5.41-1.36,11.19-1.36,12.85C962.89,626.77,971.6,626.19,998.09,620.08Zm6.78-38.45c38.63-9.83,57.4-15.31,59.65-17.43s-25.23-93.61-45.22-151.49c-6.83-19.82-7.55-23.88-6-33.89,2.25-14.23-.46-24.5-8-30.45-5.35-4.21-6.06-6.72-8.59-30.27-3-27.4-9-55.52-11.84-55.52-1,0-4.37,4.45-7.55,9.88l-5.79,9.87-1.12,109.43c-.63,60.19-2.08,124.11-3.22,142-2.91,45.42-2.75,56.46.84,56.46,1.62,0,18.19-3.88,36.84-8.63Zm-94.69-164c1.2-.74,2.8,1.71,3.55,5.47s1.75,6.43,2.22,5.95c1.5-1.49,16.9-76,19.41-93.85.76-5.44,1.94-12.87,2.62-16.49l1.25-6.61-6,5.51c-3.29,3-10.45,11.72-15.92,19.34-8.65,12.07-10.16,15.87-11.76,29.69-2.6,22.46-2.29,68.69.41,59.37,1.11-3.86,3-7.65,4.22-8.38Zm30.43-130.81c.34-11.39-2.16-14-11.54-12.29-6.28,1.17-8.19,2.72-9.24,7.44-.72,3.26-2.13,8.92-3.12,12.54s-2.42,11-3.2,16.41l-1.39,9.81,14.14-13.12c12-11.08,14.16-14.28,14.35-20.79ZM258.1,289.52c.72-4.53,2.81-14.66,4.65-22.51l3.34-14.27-5.78-5c-3.17-2.73-6.56-5-7.53-5s-2.33,6.67-3,14.83c-1.48,17.46-3.14,22.55-7.31,22.55-1.68,0-3.07.69-3.07,1.54,0,2.12,13.66,16,15.73,16,.93,0,2.26-3.71,3-8.25ZM275.34,227c5-12.78,1.58-15-8.72-5.52-7.26,6.64-8,8.15-5.44,11.21,5.16,6.24,10.28,4.18,14.16-5.69ZM633,202.23c39.86-7.68,70.29-25.47,93.59-54.71,11.37-14.28,25.17-38,25.17-43.18,0-1.22-4.1-4.94-9.1-8.26l-9.12-6L730,95.47c-6.95,10.67-28.71,34.73-40.2,44.48-23.24,19.74-46.33,31.48-72.85,37.12-24.57,5.21-56.52-5.48-83.88-28-14-11.52-37.4-40.48-45.32-56-2.4-4.7-5.41-8.56-6.69-8.56-4.61,0-21.78,11.5-21.78,14.6,0,10.29,21.5,41.66,42.09,61.41,38.4,36.83,83.31,51.09,131.63,41.77Z"/><path id="path1949" class="cls-3" d="M509.88,1137.5c-26.34-3.54-40.5-6.57-70.95-15.17-40.28-11.35-61.41-13.95-101.29-12.43-39.42,1.49-38.47,2.06-45.55-27.35-4.19-17.37-5.18-29.16-6.31-75.57-.92-37.5-2.21-56.5-4.08-59.77-4.11-7.24-3.28-25.41,1.67-37,5.88-13.73,5.56-19.53-2-35.5C268.49,847.5,268,826.29,279.53,795c3.61-9.77,4-13.22,2-19.79-3.73-12.52-5.27-41.87-3-56.35a164.82,164.82,0,0,1,6.7-25.59,141.45,141.45,0,0,0,6-21.16c1.34-8.38,1.11-8.83-5.91-11.29a43.46,43.46,0,0,1-12.89-7.73c-5.19-4.84-7.77-5.26-39.64-6.44-18.75-.7-38.54-2.33-44-3.65-17.72-4.24-40.43-11.35-52.78-16.52-6.65-2.78-15.24-5.71-19.09-6.51-11.67-2.42-12.35-4.7-10.89-36.89.73-16,1.85-33.6,2.49-39C111.8,516.6,125.39,464.25,145,403.8c7-21.53,8.94-31.26,9.67-47.78.92-20.55,4.56-33,11.28-38.63,1.7-1.41,3.1-5.65,3.11-9.44,0-11.68,4.46-24,12.29-34.18,4.62-6,7.49-12.19,7.49-16.18,0-7.21,9-38.58,16-55.48,6.78-16.47,22.1-38.76,32.27-46.93,13.32-10.71,29.5-17.32,54.72-22.38,43.66-8.74,133.39-40.49,162-57.31,22.13-13,31.11-16.3,37-13.56,45.08,21.1,70.85,27,118.06,26.85,44.18-.1,85.68-6.35,110.39-16.66,7.16-3,14.21-4.58,16.49-3.75s11.16,6.28,20,12.18C772.79,92,797.82,102.34,860,123.64c86.68,29.71,111.7,44.86,128.44,77.83,9.16,18,26.08,84.39,28.75,112.76,1.12,11.95,2.83,17.29,7.69,24,8.39,11.61,11.32,23.67,9.64,39.74-1.22,11.61-.43,16.06,6.28,35.27,15.77,45.26,45.94,144.81,50,164.94,4.72,23.67,4.74,24.82.39,29.48-8.92,9.58-61.3,27.36-104.75,35.57-21.8,4.12-25.43,5.46-32.25,12-10.49,10-22.15,14.47-38.2,14.47H902.42l-.14,47.7c-.11,36.11-1.07,52.5-4,67.49-6.68,34.19-6.75,36.7-1.21,47.44,4.1,7.9,5,13.27,5.06,28.43,0,19.77-3.08,32.89-14.12,59.65-5.89,14.31-6.06,15.58-3,22.92,10.73,25.66,13.21,112.72,3.5,122.43-1.18,1.18-10.09,3-19.8,4.12-33.46,3.75-53.47,9.75-111.44,33.41-74.47,30.39-108.36,37-186.93,36.47-25.39-.18-52.61-1.2-60.47-2.25Zm107.4-15.1c44.28-4.66,83.23-15.16,132.3-35.67,53.45-22.34,94.32-34.67,114.93-34.67,4,0,8.53-1.17,10-2.63,5.81-5.8,1.1-78.58-6.32-97.74l-2.43-6.28-8,9.9c-13.1,16.18-45.8,49.18-52.88,53.37-14.46,8.53-8.34-1.62,14.61-24.25,13.17-13,27.93-29.07,32.8-35.71,9.36-12.79,22.31-41.38,27.89-61.59,5.29-19.16,5.56-40.43.61-47.21-2.7-3.69-4.33-1.4-17.31,24.33-22.7,45-75.45,135-81.18,138.53a4,4,0,0,1-4.53-.84c-1.55-1.55,2.23-9.47,12-25,24.68-39.52,45.21-75.43,62.95-110.1,18.26-35.67,22.42-50.26,28.74-100.77,2.84-22.66,3.12-82.7.41-84.39-1.06-.66-5.07,8-8.91,19.11s-10.28,28.73-14.32,39-9.58,25.12-12.29,33C812.59,870.15,782.35,938,771.91,939.52c-2.61.38-4.74.06-4.74-.72s3.92-8,8.71-16.1c14.65-24.73,44.51-97.92,61.61-151,3.9-12.1,15.63-47.23,26.06-78.07,10.86-32.09,19.7-62.2,20.68-70.38.94-7.86,2.71-45.46,3.92-83.57,2.56-80,6.23-169,7.46-180.65,2.77-26.36,3.78-32.69,10.43-65.19,2.6-12.72,8.8-23,11.28-18.74.57,1-.21,7.23-1.75,13.89-5.56,24.07-7.25,34-6.1,35.91.65,1.06,7.08-4.62,14.28-12.6s14.51-14.52,16.24-14.52c3.82,0,4.32-15.63.7-22.38-2-3.79-3.78-4.29-11-3.13-9,1.43-11.48-1.51-6-7,2.9-2.9,14.64-3.51,18.5-1S951.89,279.33,952,285c.08,4.92.23,4.88,5.29-1.3,2.86-3.5,9.83-14.63,15.5-24.73l10.31-18.36-4.74-14.69c-12.65-39.17-33-53.34-119.05-83-25.86-8.92-56.43-19.85-67.92-24.32s-22.48-8.58-24.43-9.19c-2.52-.79-5.25,2.21-9.6,10.6-21.58,41.64-56.83,72.88-97.5,86.43-44.77,14.93-85.51,11.61-129.06-10.52-14.34-7.26-22.08-13.44-41.83-33.31-19.36-19.46-26.14-28-33.62-42.41l-9.39-18-12.56,5.57c-32.2,14.31-104.46,37.3-144.51,46-27.84,6-40.13,13.76-53.47,33.65-9.35,13.94-18.55,35.23-18.55,42.94,0,5.62,15.86,33.16,19.18,33.29,1.17,0,2.47-6.28,2.89-14.06s1.71-15.95,2.89-18.15c2.47-4.61,11.92-5.34,14.51-1.11,1,1.57,6.19,5.8,11.61,9.4,7.54,5,10.8,9.07,13.93,17.45,4.56,12.24,4.35,22-1.55,73.63-5.33,46.52-3.81,100,4.24,149.53,1.66,10.3,2.49,21.24,1.84,24.35-2.21,10.56,9.07,78.71,16.74,101,1,3,4.55,14.4,7.82,25.28,13.1,43.69,27.25,86.82,34.61,105.56,17.95,45.72,63.41,132.57,86.33,164.94,5.14,7.25,14.4,18.94,20.57,26,10.49,11.92,14,19.11,9.21,19.11-2.57,0-21.74-20-31.52-33-23.45-31-58-90.61-77.11-132.88-9.63-21.32-35-90.28-38.22-104.07-1.68-7.11-4.36-6.09-5.92,2.24-.74,3.94-3.82,15-6.84,24.49-6.6,20.79-7.22,43-1.82,65.37l3.66,15.21-6.42,19.19c-9,26.84-8.74,44.47.85,65.13,8.5,18.32,9,29.9,2.19,49.32-4.83,13.74-4.83,14-.87,25.19,3.23,9.11,4.18,20,4.91,56.47.87,42.66,5.39,84.45,9.63,88.89,1,1.06,12.54,1.77,25.64,1.56,30.77-.44,69.06,4.68,97.15,13,34.84,10.35,71.23,17.89,99.29,20.55,17.44,1.67,61.82,1.22,81-.8Zm-158-89.84c-12.69-4.54-30-11.51-38.49-15.51s-27.44-12.55-42.15-19c-36.43-16-71.1-33.55-71.1-36,0-5.22,6-3.5,33.8,9.77,43.71,20.82,95.39,42.39,126.74,52.92,17.38,5.83,27.48,10.33,27.48,12.25,0,5.53-12.8,4-36.28-4.4ZM607.74,974.7c-90.5-62.24-185.33-172.2-236.16-273.89-9.94-19.89-11.14-25.51-5.2-24.38,2.35.47,9.28,11,17.8,27.1,35.08,66.31,91.21,140.7,146.88,194.68C559.85,926.14,575.17,939,605,960.07c12.42,8.8,23.31,17,24.19,18.27,6.45,9-6.08,6.9-21.4-3.64ZM930.56,648.86c11.72-4.89,27.3-25.62,19.27-25.62-1.14,0-5.54,2-9.78,4.55-11.84,7-30.08,13-39.25,13-9.34,0-11.88,5.75-3.32,7.57l9.35,2q13.32,2.82,23.73-1.53ZM302.1,643c.77-1.25-.64-8.58-3.12-16.29-6.5-20.1-17.72-63.88-20.32-79.32-1.23-7.25-3.13-26-4.25-41.78s-3-36-4.1-45.09c-3.27-25.85-5.06-98.15-2.92-118.32l1.92-18.27-8.68-6.38c-16.34-12-39.94-36.28-45.43-46.71-3-5.74-6.24-10.43-7.15-10.43s-1.65,3.28-1.65,7.29c0,5.17-2.25,9.95-7.7,16.31-6.33,7.4-7.69,10.74-7.69,18.93,0,12-2.71,19.69-10,28.32-4.08,4.84-5.44,9-5.44,16.74,0,14.3-6,47.1-10.86,59.41-5,12.75-22.47,72.2-28.53,97.21-5.14,21.24-13.39,66.6-12.3,67.67.39.41,10.42,4.11,22.28,8.24,22.41,7.79,32.26,14.37,28,18.66-1.68,1.68-8.9.08-25.08-5.55-12.49-4.35-24.07-7.39-25.74-6.75s-2.73,3.52-2.32,6.89c.57,4.7,3,6.7,13.89,11.17,44.28,18.28,87.91,27.22,116.52,23.87,21.61-2.52,22.79-2.25,31.71,7.41,8,8.7,16,11.54,18.94,6.77Zm633-22c13.1-7.95,17.82-14.47,19.84-27.47,1.83-11.69,6.12-291.73,4.49-293.36s-9.56,8.63-10.67,14.07c-.49,2.43-2.06,12.82-3.51,23.1-2.77,19.73-7.46,45.78-10.91,60.47-12,51.3-21,85.39-23.33,88.54s-3.39,3.28-5.6,1.08-2-5.84,1.33-18.69c2.27-8.77,5.32-18.92,6.81-22.55,5.89-14.39,22.11-92,26.31-125.9q1.43-11.54-.95-11.54c-2.29,0-26.77,29.4-30.78,37-5.2,9.81-7.17,40.15-7,108.16.13,69.5-2.57,150.64-5.59,168l-1.48,8.57,14.66-1.18c11.31-.91,17.35-2.81,26.42-8.3Zm61.86,1.1c29.51-6.69,69.78-19.89,75.92-24.89,4-3.28,4.24-4.5,1.93-11.38-1.42-4.23-3.32-8.52-4.22-9.52s-11.4,1.14-23.34,4.76c-27.49,8.34-66.56,18-72.93,18-9,0-5.14-6,5.59-8.64,5.75-1.45,13.92-3.56,18.15-4.67s14.12-3.58,22-5.46c18-4.3,48.38-14.19,48.38-15.74,0-3.16-32.11-107.39-42.61-138.28-10.88-32-11.9-36.61-10.8-48.73,1.55-17-.13-23.47-7.92-30.41-5.65-5-6.39-7.39-7.77-24.71-1.49-18.62-7.64-51-11.75-61.9-2-5.19-2.33-4.91-10.61,7.69l-8.59,13.07-1.34,119.86c-1.26,112.46-2.63,165.34-5.41,208.37l-1.18,18.14,6.17,0c3.39,0,17.05-2.49,30.35-5.5ZM270.82,305.85c3.19-8.29,4.08-33.15,1.52-42.28-2.84-10.13-15.57-24-20.52-22.36-1.4.46-3.24,7.12-4.1,14.78-2.11,19-2.89,20.54-9.45,18.88-7.57-1.9-7.08,2.36,1.44,12.7,6,7.32,24.56,21,28.57,21.15C269.07,308.75,270.21,307.45,270.82,305.85Zm366-101.57q56.4-11.76,91.37-55C740.7,133.9,754,111.12,754,105.14c0-2.59-3.92-6.66-10.26-10.66L733.47,88l-5.64,7.58c-11,14.69-43.28,46.63-56,55.34-17.19,11.76-36.75,20.32-54.19,23.72-12.39,2.42-16.52,2.28-30.75-.95-9-2.06-22.39-6.87-29.66-10.7-19.1-10-50.49-41.93-63.79-64.8L482.89,80.05l-11.25,6.46c-16.68,9.62-17,10.81-7.28,29.65,33.76,65.66,105.2,102.16,172.5,88.12Zm-2.2-44.64c13.57-5.15,32.19-15.7,30.58-17.31-.62-.63-4.9.17-9.53,1.76-10.51,3.63-79.64,3.92-90.85.38a143.42,143.42,0,0,0-15.21-3.75c-7.25-1.27-7.37-1.18-3.71,2.85,5,5.59,27.26,17.28,37.87,20,12.39,3.11,37.54,1.2,50.85-3.88Zm25.86-26.71c25.32-5.75,26.2-6.22,40.3-21,7.65-8.06,13.53-15,13-15.5s-4.22.09-8.3,1.27c-24.44,7-51.08,9.74-95.63,9.81-49.61.08-60.9-1.52-93.5-13.28-8.65-3.12-16.15-5.26-16.67-4.76s4.22,8,10.5,16.72c11.39,15.75,11.47,15.82,29.35,21.27a247.74,247.74,0,0,0,34.23,7.51c18.38,2.32,73.29,1,86.67-2Z"/><path id="path1947" class="cls-4" d="M525.17,1139.19c-.62-.61-9.83-2.2-20.48-3.51-21.66-2.7-46.12-8.18-74-16.57-34.79-10.5-76.87-14.37-107.73-9.91-22.25,3.22-24,1.2-32.28-37.33-2.57-12-3.69-30.41-4-67.08-.39-40.24-1.21-52.38-4-59.38-4.77-12-4.54-16.56,1.79-34.91,5.48-15.88,5.28-25.35-.69-32.92-1.1-1.4-4.11-8.27-6.7-15.27-6.42-17.43-6.1-35.21,1.07-58.63,5.25-17.14,5.55-20,3.3-32.25-1.35-7.39-2.46-23-2.46-34.6,0-17.52,1.11-24.5,6.46-40.57,8.45-25.47,9-31.1,3.44-34.15-2.43-1.33-9.34-5.56-15.39-9.41-10.93-7-11.2-7-46.19-8.11-31.11-1-37.91-1.89-58.77-8-13-3.81-29.08-9.35-35.8-12.32s-13.91-5.44-16-5.47a16.22,16.22,0,0,1-7.81-3.13c-3.63-2.76-3.94-5.78-3.06-30.17.54-14.92,2.17-34.54,3.62-43.6,5.22-32.65,20.15-88.79,36.7-138,5.2-15.44,8-28.28,8.74-40.68,1.7-26.86,2.66-31.16,9.08-40.43,4.08-5.9,6.32-12.69,7.37-22.34,1.21-11.07,3-15.68,8.74-22.86a45.07,45.07,0,0,0,9.21-20.22c3.57-20.12,13-48.25,22-65.74,17.56-34,37.78-49.12,76-56.86,48.65-9.84,127.71-37,161-55.23,35.85-19.68,35.77-19.64,40.54-17.44,38,17.52,58.31,23.5,92.09,27.18,39.67,4.3,110-3.69,136.75-15.53,5.77-2.55,12.59-4.64,15.16-4.64s12.79,5.42,22.71,12.07C774.7,94,796.06,102.84,859,124.25c46.46,15.78,72.56,26.44,88.66,36.19,15.37,9.31,32.87,27.66,40.23,42.17,7.21,14.26,24.39,81.17,27.79,108.35,1.83,14.54,3.86,22.25,6.7,25.32,7.87,8.55,11.12,20.36,10.77,39.19-.29,15.5.77,21.13,7.7,41,18.35,52.76,54,174.14,54,183.9,0,5.73-8,11.19-27.2,18.63a454.37,454.37,0,0,1-78.86,22.69c-21.72,4.34-27,6.23-33.56,12-12.15,10.67-20.28,13.87-38.29,15.11L900.22,670v50.85c0,44.09-.65,54.11-5,75.34l-5,24.48,5.5,11.8c4.31,9.27,5.49,15.33,5.5,28.3,0,19.11-1.72,26.71-12.42,54.24-7.76,20-7.8,20.23-4.42,30.78,6.74,21.12,8.73,37.67,8.85,73.57.15,46.12-.19,46.84-23,49.09-30.52,3-61.63,12.73-129.62,40.49-29.4,12-69.4,23.38-95.21,27.1-16.64,2.38-118.39,5.08-120.29,3.17Zm89.16-15.61c55.45-6.22,84.95-14.16,140.26-37.72,39.57-16.84,69.21-26.32,97.25-31.1l24.2-4.12.72-27.33c.76-29.14-2.51-59.81-7.73-72.4l-3.2-7.7-9.14,11c-13.11,15.76-43.35,46.93-50.61,52.12-12.69,9.12-8.53,1,6.43-12.52,26.92-24.33,46.16-48.9,56-71.57,11-25.25,17.45-48.33,17.45-62.07,0-11.67-5.29-26.87-8.64-24.81-1.18.73-6.81,10.95-12.51,22.71-13.29,27.38-24.44,47.42-52.85,95-25.63,42.95-30.54,50.12-32.82,47.85-.87-.87,3.88-10.25,10.54-20.86,41.59-66.28,83-143.45,83.16-155.05,0-2.74,1.53-10.93,3.31-18.18,9.77-40,13.17-133.07,4.76-130.26-1.22.41-6.85,14-12.52,30.31s-14.46,41-19.55,54.86-11.59,31.73-14.42,39.59c-26,72.14-55.15,136.35-61.94,136.35-4.23,0-4.06-.58,4.32-13.7,6.39-10,19.83-39,34.36-74.27C821.6,824.39,838.2,776.89,852.64,731c3.61-11.49,10.19-30.79,14.61-42.89s8.82-25,9.75-28.59,3.3-11.24,5.25-16.94c4.94-14.35,8.17-67.59,10.44-172.18,2.2-101.31,3.68-119.82,13.16-164.93,1.27-6.05,2.86-14.23,3.54-18.16s2.22-7.8,3.44-8.55c2.12-1.31,1.54,6.18-1.66,21.22-.65,3-1.74,11.43-2.42,18.69l-1.23,13.19,14.67-15.95c8.07-8.76,16-15.93,17.57-15.93,6.32,0,7.66-18,2-26.15-2.93-4.18-5-4.91-11-3.92-8.65,1.4-9.94-2.08-1.91-5.13,11.27-4.28,20.89,5.49,20.89,21.23,0,7,4.68,6.51,9.11-.9,2-3.32,8.15-13.45,13.71-22.53s10.11-19,10.13-22.1c.07-9.89-8.54-31.43-17-42.63-16.46-21.71-36.74-32.14-115.69-59.43-25.55-8.84-54.36-19.15-64-22.92s-19-6.81-20.89-6.76-8.3,8.62-14.35,19c-24.26,41.82-58.37,68.59-101.15,79.41-27.71,7-47.2,8.52-63.2,4.91-5.16-1.17-14.93-3.19-21.74-4.49-12.6-2.43-35.37-13.17-51.66-24.36-5-3.41-17.61-15.31-28.06-26.43-14.14-15-21.16-24.64-27.25-37.35-5.14-10.72-9.55-17.2-11.79-17.28-2-.07-9.38,2.44-16.49,5.59-30.28,13.41-104.51,36.81-138.27,43.6-23.14,4.65-38.49,12.38-49.54,24.94-10,11.34-23.71,38-25.62,49.74-1.39,8.61,4.62,22.54,15.35,35.54,8.22,10,10.25,7.52,10.29-12.59,0-17,4.14-24.05,10.93-18.95,2.09,1.57,7.83,5.82,12.74,9.45,14.48,10.69,17.07,16.75,16.88,39.58-.09,10.89-1.58,33.16-3.32,49.47-3.94,37.27-1.94,126.37,3.41,151.52,1.89,9,2.89,19.35,2.19,23.1-3,16.41,9.05,78.86,25.57,132.16,26.38,85.07,30.23,95.52,54.81,148.45,30.44,65.61,59.89,114.8,86.95,145.26,12.81,14.43,12.62,19-.28,6.39-33.69-32.84-91.76-133.08-112.9-194.94-13.85-40.46-18.21-52.83-20-56.77a41.3,41.3,0,0,1-2.64-8.61c-1.06-6.75-5.86-6.61-7.34.2-.75,3.42-3.66,13.63-6.5,22.7-6.85,21.92-8.47,39.59-5.4,58.28,4.94,30,4.93,30.57-1.57,49.72-8.77,25.91-8.3,39.47,2.18,62.78,9.25,20.6,9.77,26.8,3.67,44.16-5.25,14.95-5.54,23.71-1.1,34.32,2.55,6.09,3.31,17.6,3.31,50.3,0,38.48,1.87,59.2,7.81,86.94l1.53,7.14,33.26,0c37.76,0,60.22,3.25,98.61,14.27,32.62,9.35,55.85,14.09,86.4,17.6,33,3.8,50.06,3.81,83.55,0Zm-148.44-91c-34-11.17-151.25-64.53-154.94-70.51-2.13-3.43-1.54-3.23,21,7.26,45.48,21.14,52.71,24.35,85.37,38,31.3,13.08,61.23,23.71,71.46,25.39,2.32.38,4.64,1.93,5.14,3.45,1.44,4.31-7.51,3.19-28.05-3.57Zm137.46-63.28c-74.84-52.1-152.23-137.12-206.57-227-13.62-22.53-32-58.19-32-62,0-6.57,6.15,1.44,17,22.16C434.59,803.11,526.27,909,608.46,964.25c9.78,6.57,18.28,13.19,18.91,14.7C629.8,984.88,620.18,981,603.35,969.28ZM934.3,648.41c7.9-4,17.05-14.32,18.72-21.09,1.87-7.54-1.46-9.42-8-4.51-11.12,8.34-35.17,16.53-45.12,15.36-5.76-.66-7.65.07-8.68,3.33-1.86,5.84,1.24,8.15,13.65,10.13,12.06,1.92,21.31.91,29.43-3.22Zm-629-6c0-.26-1.59-5.43-3.52-11.48-7.83-24.71-18-65.06-20.85-82.46-1.28-7.87-3.23-26.66-4.33-41.79s-3-36.89-4.18-48.37c-3.59-34.49-5.08-98.73-2.68-116.56,2.19-16.36,2.17-16.53-3.64-21.4-32.07-27-39.81-35.32-54.37-58.86l-4.08-6.6L206,264.52c-1,5.8-4.78,13.63-9.44,19.62-6.47,8.3-7.76,11.74-7.76,20.73,0,11.52-2,16.73-10.22,26.61-4.13,4.95-5.18,8.81-5.18,19,0,15-5.69,46.9-9.8,54.94-10,19.57-42.12,150-40.37,164,.61,4.93,3.2,6.43,22.42,13,21,7.2,30.27,12.64,27,15.88-.86.86-4.26.49-7.57-.82-15.61-6.2-42.27-14.58-43.25-13.59-2.83,2.82-2.12,15.76,1,17.48,8.3,4.65,31.77,13.36,53.88,20,22.84,6.85,26.28,7.27,61.47,7.66l37.27.42,4.34,6c5.52,7.58,16.41,12.37,21.7,9.55,2.12-1.14,3.86-2.3,3.85-2.55Zm622.37-15.56c24-10.66,28.58-18.39,28.62-48.19q.06-37.08,4.64-29.82c2.62,4.12,2.36,34.47-.48,57.6-1.6,13.1-1.65,20.22-.16,21.71,4.57,4.57,76.07-13,105.1-25.83,12.6-5.57,13-6.47,9.53-19.13-3-10.66-5-11.65-16-7.72a514.56,514.56,0,0,1-56.46,15.82c-9.07,2-19.39,4.47-22.94,5.61-6.88,2.21-9.12,1.59-6.95-1.91.73-1.18,5.52-2.79,10.66-3.58a112.43,112.43,0,0,0,14.84-3.27c3-1,13.9-4,24.18-6.77,36.69-9.67,46.18-13.23,46.18-17.37,0-7.2-22.08-80.2-41.3-136.48-9.23-27-10.14-31.59-10.25-51l-.12-21.34-8.25-8.45c-7.54-7.71-8.24-9.5-8.24-20.71,0-20.81-10.65-72.28-14.94-72.16-2.25,0-18.05,27.62-18.05,31.5,0,6.21-2.68,10.23-6.83,10.23-2.3,0-4.17.85-4.17,1.91s-2.22,4.72-4.95,8.17c-3.7,4.68-5.6,11.51-7.57,27.23-2.49,19.92-4.31,30.33-9.23,52.85-1.18,5.46-3.69,17.32-5.56,26.4-4,19.46-6.68,30.85-10,42.88-1.36,4.84-3.65,13.65-5.1,19.56-2.74,11.26-7.24,13.33-6.7,3.09.16-3.27,3.44-16.12,7.27-28.59s7.89-25.69,9-29.4a49.34,49.34,0,0,0,2.08-11.57,21.21,21.21,0,0,1,2.12-8.65c1.17-2.09,3.18-11.23,4.47-20.31s3.29-21.44,4.45-27.49c2.48-12.9,6.37-38.38,6.48-42.33a2.88,2.88,0,0,0-3.07-2.75c-3.73,0-26.32,26.46-31.91,37.38-7.59,14.86-8.92,34.12-9.87,143-.59,66.83-1.92,113-3.56,123.63-1.43,9.35-2.1,18.33-1.48,20,1.44,3.76,23.05,1.48,34.56-3.65Zm32.61-162c.4-44.15,1.56-99.06,2.56-122,1.32-29.84,1.57-10.68.91,67.08-.52,59.86-1.66,114.79-2.56,122.05S959.92,509.06,960.32,464.9Zm-686-167.85c3.35-19.28,3-27.52-1.71-37.86-4.27-9.39-16.78-21.52-20.81-20.18-1.31.44-4,8.15-5.88,17.13-3.38,15.74-3.73,16.32-9.43,15.64-8.89-1.07-7.64,5.49,3.42,17.94,8.75,9.86,23.75,20.56,29.46,21,1.42.12,3.58-5.85,5-13.71Zm359.53-89.61c22.69-5.95,27.64-7.73,43.13-15.49,30.39-15.2,51.94-36.29,71-69.49,4.6-8,8-16.09,7.68-18s-5.6-6.8-11.64-10.86l-11-7.36-6.59,8.31c-47.25,59.5-93.76,85.85-137.7,78-8.41-1.51-21-5.59-27.86-9.09C536.47,151.06,507.46,121.28,491,91.6c-3.53-6.35-7.27-11.54-8.34-11.54-3.45,0-25.87,13.63-26.91,16.37-3.18,8.26,18.77,43.29,40.85,65.19,23.5,23.32,43.3,34.37,81.45,45.49,10.45,3.06,44.68,3.25,55.83.33ZM631,163c15.25-5.19,39.46-18.73,39.46-22.06,0-1.1-3.65-1.26-8.25-.37s-25.57,2.05-46.74,2.59c-36.48.95-51.25-.34-69.18-6-10.9-3.46-11.38,1.26-.88,8.91,29.5,21.5,56.54,26.86,85.59,17Zm14.16-24.54c18.42-2.63,31.11-6,40-10.69,11.75-6.16,36.94-34.5,30.67-34.5-.45,0-8.61,1.95-18.13,4.35s-34.4,6-55.27,8.11c-35.93,3.54-39.55,3.54-68.17-.1-20.67-2.63-37.44-6.29-53-11.55-12.52-4.23-23.27-7.19-23.9-6.57s3.73,8.37,9.7,17.2c8.19,12.13,13.24,17.2,20.6,20.79,11.67,5.67,36,11.65,52.35,12.86,6.5.48,12.44,1.52,13.2,2.32,1.44,1.49,36.43,0,52-2.22Z"/><path id="path1945" class="cls-5" d="M519.78,1137.86c-3.64-1-14.52-2.86-24.2-4.12s-30.45-5.91-46.18-10.34c-53-14.91-51.8-14.72-100.81-15l-45.83-.26-3-5.69c-1.64-3.12-5-15.65-7.5-27.82-3.72-18.27-4.51-30.41-4.51-69.36,0-37-.72-48.92-3.31-55.1-4.57-10.95-4.11-27.79,1.1-41,5.77-14.59,5.59-17.55-1.88-32.5-13.16-26.28-14-44.39-3.76-76.69,4.8-15.11,5.3-18.91,3.15-24.2-1.51-3.65-2.61-18.63-2.66-35.94-.1-27.17.41-30.95,5.78-44.46,3.24-8.12,6.15-18.89,6.48-24,.54-8.46.08-9.36-6-11.39-3.64-1.22-9.7-4.91-13.5-8.2-6.7-5.81-7.8-6-41.77-7.25-19.2-.69-40.35-2.7-47-4.45-29.72-7.8-43.8-12.27-52.28-16.6-5-2.56-10.6-4.65-12.4-4.65s-5.86-1.18-9-2.62l-5.72-2.6.87-25.43c.49-14,2-33.07,3.48-42.4,4.32-28.28,29.7-124.51,38.15-144.67,5.34-12.75,8.29-28.62,9.1-49.07.7-17.57,1.42-20.31,7.69-29.2,4.31-6.11,6.93-12.51,6.93-16.92a48,48,0,0,1,11.14-30.67c4.86-6,7.33-12.06,8.62-21,2.57-17.91,15.54-55.05,24.38-69.84,9.9-16.59,26.25-32.58,40.24-39.4,6.2-3,21.13-7.5,33.19-10,55.19-11.3,133-39.22,172.5-61.89L484.17,60l16.08,7.73c37.2,17.92,71.7,24.44,120.09,22.72q56.65-2,90.76-14c24.36-8.57,22.68-8.72,41.8,3.84C775,94.8,790.58,101.37,856.24,123.91c68.84,23.62,93.57,35.48,111.7,53.52,7.91,7.88,16.25,18.89,19.62,25.95,7.9,16.46,25,84,27.62,109,1.76,16.83,3,21.1,7.7,26.16,7.62,8.22,11.29,22.53,9.68,37.89-1.2,11.52.07,16.85,14.91,62.08,8.91,27.21,22.27,70.76,29.66,96.75s14.41,50.32,15.59,54c3.25,10.32,2.48,14.88-3.25,19-14.25,10.36-80.38,30.67-116.3,35.71a32.54,32.54,0,0,0-18.69,8.74C941.65,664.28,933,667.73,916,668.08l-15.35.31-.24,49.45c-.21,41.72-1,53.66-5.33,76.4l-5.08,27,4.85,10c5.91,12.22,7.92,33.54,4.59,49-1.34,6.32-6.06,21.09-10.45,32.85-7.34,19.57-7.8,22.1-5.46,30.15,6.43,22,9.42,45.72,9.59,76.2.26,45.69-.05,46.24-28,49.23-27.72,3-58.14,12.22-104.5,31.78-45.72,19.3-80.73,29.85-117.62,35.46-20.71,3.15-113.6,4.64-123.14,2ZM615,1124.57c49.67-5.3,89.85-16.22,141.22-38.41,41.35-17.86,72.54-27.57,102.64-31.94l18-2.6,1.46-15.72c1.54-16.66-1.83-61.39-5.88-78.23-1.33-5.53-4.21-11.54-6.39-13.36-4.42-3.69-5.41.18,10.2-39.58,13.83-35.24,12.87-73-1.81-70.63-2.5.39-2-6.79,1.59-22.22,6.44-27.76,10-62.1,9.74-95s-1.53-44.14-5.21-44.14c-1.07,0-6.56,13.36-12.21,29.69-12.61,36.45-15.14,42.72-16.66,41.2s4.62-21.13,14.55-47.79c3.82-10.28,8.73-24.74,10.9-32.13s5.06-15.49,6.4-18,2.46-7.84,2.47-11.86A57.34,57.34,0,0,1,887.58,621c1.42-4.93,1.7-4.59,2.74,3.3.64,4.84.16,11.6-1.06,15-2.93,8.18,1.33,11.36,17.74,13.3,20.28,2.38,37-4.8,44.73-19.2,2.39-4.48,4.17-5.36,8.91-4.41,16.77,3.35,116-24.7,116.87-33,.53-5.29-.83-11.6-4.12-19-1.89-4.23-3.62-10.17-3.85-13.19-.55-7.33-22.12-78.9-39.44-130.86-13.12-39.37-13.86-42.67-12.81-57.31,1.21-16.78-2.18-27.35-10.14-31.6-3.24-1.74-4.41-5.93-5.67-20.29-2.7-31-12.18-72.22-16.6-72.22-1.11,0-2-4.21-1.89-9.35.29-19.49-10.45-40.73-29-57.42-15.54-14-37.47-24.09-97.73-45.09-27.82-9.68-59.91-21.17-71.33-25.52s-22-7.42-23.64-6.81a2,2,0,0,1-2.89-2.06c0-3.2-21-18.69-25.36-18.69-1.27,0-6.24,5.14-11,11.42-21.3,28-57.87,58.88-77.9,65.86-12.1,4.22-9.51.48,4.79-6.92,18.39-9.52,25.4-14.63,27-19.69.73-2.31,5.58-6.24,10.76-8.75C696.16,124,720.77,96.69,718,93.88c-.77-.79-8.57.23-17.33,2.25-31.51,7.27-49.57,9.09-90.68,9.16-45.2.06-60.73-2.19-91.57-13.24-22.83-8.19-23.89-8.44-23.89-5.45,0,5.57,23.06,35.82,29.74,39,3.76,1.81,7.88,6,9.15,9.37,2.6,6.88,23.58,22.08,38.4,27.81,10.68,4.13,15.45,7.44,10.73,7.44-1.67,0-11-3.9-20.78-8.66-22-10.76-44.06-31.39-60.1-56.21-6.24-9.68-13.13-19.83-15.29-22.55l-3.95-5L468.71,86c-7.52,4.47-14.18,9.46-14.81,11.09s1.15,7.61,3.94,13.31c10,20.53,22.22,37.08,40.81,55.4,10.41,10.25,15.78,16.42,12,13.71s-15.11-13.58-25.05-24.14c-13.43-14.28-20.33-23.88-26.84-37.37-4.82-10-10-18.14-11.59-18.14s-9.57,3-17.83,6.74c-25.25,11.32-104,36.63-132.17,42.45-14.65,3-29.92,7.19-33.93,9.25-18,9.22-32.94,27.34-43.49,52.68-8.27,19.85-7.86,23.76,4.43,42.79,4.76,7.35,8.65,13.9,8.65,14.55s-2,.53-4.54-.27l-4.54-1.44,4.63,9.09A107.89,107.89,0,0,0,241.13,294l8.15,9.25-9.9-8.61C231,287.36,213.58,264,210,255.29c-1.76-4.27-5.73,3.16-5.77,10.78,0,4.42-2.81,10.36-8,17-6.57,8.43-8.23,12.7-9.42,24.22-1.09,10.52-2.88,15.68-7.23,20.86-5.89,7-9.71,18.39-7.41,22.1,2.52,4.09-3.64,37-10.94,58.54C144.08,459.26,124,540,122.43,564.92l-.7,11,22.5,7.73c12.37,4.26,23.7,9,25.18,10.5,4.1,4.19.36,3.4-23.29-4.94-24.56-8.66-28.38-8-27.25,4.87.61,6.85,1.75,7.92,13.86,13,41.24,17.31,69.32,23.4,109.08,23.69l32.12.21,9.12,8.26c12.26,11.08,21,10.87,22.69-.55l.82-5.5,3.08,5.5a53,53,0,0,1,4.61,13.19c.84,4.23,2.22,10.66,3.06,14.3,1.47,6.24,1.36,6.36-1.88,2.36-4.45-5.51-5.35-4.36-9.08,11.69-1.72,7.36-5.12,19.31-7.55,26.54-5.48,16.26-5.89,43.48-.95,63.2l3.5,13.92-7.09,21.95c-8.67,26.8-8.25,39.72,2.06,62.16,8.3,18.08,8.88,31.82,2.14,50.32l-4.71,12.9L298.31,945c4,12.11,4.56,19.49,4.65,58.88.08,31.67,1.16,50.53,3.62,63.58,5.19,27.26,3.46,25.85,30.21,24.67,27.79-1.24,61.6,2.45,88.3,9.63,57.66,15.5,72.93,18.7,112.28,23.6,14.43,1.8,57.42,1.35,77.6-.79Zm-129.28-87.9c-2.66-1.71-2.3-2.13,1.78-2.16,2.83,0,4.48.94,3.72,2.16C489.56,1039.32,489.78,1039.32,485.69,1036.67ZM468.64,1032c-3.93-1.14-7.14-2.62-7.14-3.28,0-1.75,13.91,1.45,16.38,3.77s.42,2.29-9.24-.49Zm-25.49-9.52c-11.92-4.91-21.2-10.54-11.34-6.89,2.41.89,8.86,3.13,14.29,5s10.84,4.23,12,5.33c3.48,3.3-1.23,2.23-14.94-3.4Zm361.41-19.26c11-10.76,29.1-26.35,26.36-22.79-4.48,5.85-21.65,21.7-26.06,24.08C801.68,1006.24,801.63,1006.09,804.56,1003.24ZM789.17,983.9c1.29-2.41,2.85-4.4,3.45-4.4s0,2-1.25,4.4-2.85,4.39-3.46,4.39S787.87,986.31,789.17,983.9Zm-434.33,0c-.74-1.21-.37-2.2.84-2.2a4.82,4.82,0,0,1,3.56,2.2c.74,1.21.37,2.2-.85,2.2A4.82,4.82,0,0,1,354.84,983.9Zm248.39-16.37C538.68,923.33,467.17,847.2,413,765.11c-21.25-32.24-46.86-79.4-45.3-83.44.5-1.29,2.93,2.1,5.41,7.54,14.68,32.23,56.71,96.51,92,140.75,42.05,52.67,102.59,109.82,146.45,138.25,8.14,5.29,14.81,10,14.81,10.45C626.43,981.76,618.31,977.86,603.23,967.53ZM839,969.6c.69-1.81,2.26-3.29,3.5-3.29s1.07,1.4-.52,3.29-3.08,3.3-3.5,3.3S838.25,971.42,839,969.6Zm8.49-9.9c2.18-2.41,4.47-4.39,5.07-4.39s-.69,2-2.87,4.39-4.48,4.41-5.09,4.41S845.25,962.13,847.45,959.7Zm-39.67-6.05c1.92-3.92,4-7.14,4.54-7.14,2.19,0,.77,3.51-3.54,8.8l-4.49,5.49,3.49-7.15ZM443.55,924.87c-20-22.29-64.66-94.13-78.85-126.79-2.1-4.84-6.33-14.24-9.4-20.9-7.27-15.75-17-41.63-16.83-44.8.07-1.36,1.87,1.48,4,6.32,35.9,81.44,73.95,150.68,99.8,181.66C456.85,937.81,457.63,940.57,443.55,924.87Zm328,9.81c0-.45,1.51-2.07,3.35-3.61,2.79-2.32,3.12-2.18,2,.84S771.58,937.15,771.58,934.68ZM820,933.45a4.67,4.67,0,0,1,2.17-3.42c1.25-.76,1.61.12.87,2.07C821.53,935.91,820,936.61,820,933.45Zm8.79-15.4a4.7,4.7,0,0,1,2.18-3.41c1.25-.76,1.61.12.85,2.07C830.33,920.52,828.75,921.21,828.75,918.05Zm19.8-35.18a4.69,4.69,0,0,1,2.17-3.42c1.25-.77,1.61.11.87,2.08C850.12,885.34,848.55,886,848.55,882.87Zm11-21.58c0-1,1.44-3.82,3.2-6.17,3.08-4.12,3.15-4.09,1.93.71-1.25,5-5.13,9.1-5.13,5.46ZM848.72,749.88c-.09-2.32.42-3.62,1.16-2.89s.8,2.63.17,4.22S848.82,752.44,848.72,749.88ZM320.16,683.49c-.88-.88-1.57-3.66-1.53-6.19.05-4.23.23-4.28,2.35-.65,2.46,4.23,1.83,9.48-.82,6.84Zm578-46.82c-1.72-2.79,5.13-5,10.35-3.34,3.47,1.1,3.76,1.78,1.34,3.31C905.9,639.15,899.71,639.16,898.17,636.67ZM299.42,616.08c-13.79-45.5-20.88-81-20.95-105,0-4.24-.92-16.61-2-27.49-5-49.38-7.24-110.86-4.94-134.15,1.75-17.79,2.1-13.78,3.41,39.58.8,32.66,2.53,66.81,3.85,75.87s3.28,31,4.35,48.82a378.54,378.54,0,0,0,15.71,88.64c4.26,14.11,7.52,29.68,6.22,29.67C304.62,632,302.08,624.86,299.42,616.08Zm637.27,8.74c.5-.34,2.9-2.08,5.32-3.86,4.07-3,4.17-2.93,1.38.63-1.67,2.11-4,3.85-5.32,3.85S936.19,625.15,936.69,624.82Zm14.15-12.63c4-7.75,6.83-9.66,8.38-5.64,1.48,3.86-3.35,10.68-8.07,11.36-3.2.48-3.23-.08-.31-5.72Zm-59.07-31.83c.76-19.36,2.12-55,3-79.17,1.25-33.86,1.4-27.54.64,27.49-.54,39.31-1.89,74.94-3,79.17-1.31,5-1.53-4.61-.65-27.49Zm16.4-100.07a46.62,46.62,0,0,1,2-8.79l1.76-5.49.18,5.49c.11,3-.77,7-1.94,8.79C908.22,483.24,908,483.24,908.17,480.29Zm6.7-24.18c0-3,.5-4.26,1.11-2.75a8.49,8.49,0,0,1,0,5.5C915.37,460.37,914.87,459.13,914.87,456.11Zm-19.8-57.18c0-3,.5-4.26,1.11-2.75a8.49,8.49,0,0,1,0,5.5C895.57,403.19,895.07,402,895.07,398.93Zm39.41-29.5c-.09-2.32.43-3.62,1.15-2.89s.82,2.63.18,4.22c-.71,1.75-1.22,1.23-1.33-1.33Zm-35.36-17.3c0-10.43,4.13-19.17,9-19.17,3.55,0,3.39,1.17-1.78,12.64C899.15,361.62,899.12,361.65,899.12,352.13Zm4.57-26.68c-.09-2.32.42-3.62,1.16-2.89s.81,2.63.17,4.22c-.7,1.75-1.22,1.23-1.33-1.33Zm14.12-1.29c2.2-2.41,4.48-4.4,5.09-4.4s-.69,2-2.89,4.4-4.46,4.39-5.07,4.39S915.63,326.59,917.81,324.16Zm-649.08-4c-3.82-3.22-9.7-7.79-13.06-10.14-3.86-2.7-5.07-4.6-3.28-5.19,1.55-.52,5.76,1.23,9.36,3.87,8.05,6,11.78,4.76,13.61-4.39,2.46-12.31,1.52-39.39-1.61-46.72-7.61-17.78-25.4-25.13-27.8-11.48-.64,3.64-1.85,5.52-2.68,4.19-2.3-3.63.75-18.71,4-20,2.79-1.08,16,8.3,26.2,18.6,6.79,6.84,11.12,29.65,7.85,41.4a88.59,88.59,0,0,0-2.53,18.46c-.1,5.43-.84,11.55-1.67,13.57-1.32,3.24-2.33,3-8.44-2.2Zm657.88-7c2.19-2.41,4.48-4.39,5.08-4.39s-.7,2-2.88,4.39-4.47,4.41-5.07,4.41S924.43,315.59,926.61,313.16Zm17-7.12c-3-3.57,4.23-14.09,8-11.76s3,6.71-1.58,10.91C946.73,308.17,945.48,308.33,943.58,306Zm12.72-14.58c0-1.23,2.4-5,5.32-8.41l5.33-6.17-1.56,7.69c-.95,4.67-3,8-5.33,8.4-2.06.4-3.76-.28-3.76-1.51Zm13.2-18.91c0-2.29,8.83-16.56,10.25-16.56.6,0-1.14,3.71-3.86,8.25C969.81,274.34,969.5,274.75,969.5,272.55ZM939.67,269c-.88-1.42-4.34-1.87-8.38-1.1-4.93.95-5.94.71-3.58-.84,4.79-3.15,10.07-2.71,13.2,1.06,1.5,1.82,2.18,3.31,1.49,3.31s-1.91-1.1-2.73-2.43ZM675,195.82a53.6,53.6,0,0,1,6.42-3.44c5.18-2.46,5.24-2.41,1.22.82C679.14,196,672,198.45,675,195.82Zm24-13.23c0-.46,1.73-2.19,3.85-3.85,3.48-2.74,3.56-2.66.83.83-2.88,3.66-4.68,4.83-4.68,3Zm-99.49-11.73a24.11,24.11,0,0,1,8.79.06c2.11.54-.13,1-5,.94s-6.57-.47-3.83-1ZM624.24,168c0-1.21,2.22-2.19,5-2.17,4,0,4.31.44,1.64,2.17C626.57,170.78,624.24,170.78,624.24,168Zm92.36-.83c0-.46,1.73-2.2,3.85-3.85,3.48-2.74,3.57-2.66.83.82-2.88,3.67-4.68,4.83-4.68,3Zm8.8-8.8c0-.46,1.72-2.19,3.84-3.85,3.5-2.73,3.56-2.66.84.82-2.88,3.68-4.68,4.83-4.68,3Zm11-14.57c2.6-3.62,5.2-6.59,5.81-6.59s-1,3-3.61,6.59-5.18,6.61-5.79,6.61S733.81,147.47,736.38,143.83ZM752,119.65c3.22-6.74,4.24-8,4.24-5.2,0,1.18-1.55,4.07-3.44,6.42C749.54,124.9,749.49,124.83,752,119.65Z"/><path id="path1943" class="cls-6" d="M527.28,1139.11c-.64-.64-11.49-2.63-24.13-4.42s-35.82-6.86-51.55-11.27l-40.68-11.37c-8.81-2.45-24.76-3.5-58.72-3.84-32.47-.31-47.61-1.26-49.82-3.1-3.58-3-9.17-24.41-12.38-47.54-1.18-8.46-2.16-34.81-2.19-58.56,0-33.31-.8-45-3.35-51.07-4.5-10.79-4.13-23.32,1.1-36.61,5.94-15.06,5.56-22-2-37.06-12.45-24.65-13-44-2.14-76.82,4.14-12.5,4.3-14.9,1.69-25.29-1.58-6.31-2.83-22.37-2.75-35.67.11-20.56,1-26.38,5.82-38.87,3.13-8.07,6.37-19.21,7.2-24.75l1.51-10-8.51-3.5a57.39,57.39,0,0,1-14-8.53c-5.06-4.63-8.15-5.14-38.49-6.34-39.53-1.56-66.86-7.18-97.86-20.14a211,211,0,0,0-21.57-7.59L105,614.2l.94-25.72C107.64,542,121.53,481,149.26,398.29c4.82-14.37,6.78-25.09,7.64-41.78,1-19.74,1.93-23.68,7.45-32.57a59.66,59.66,0,0,0,7.78-22.13c.82-6.62,3.68-15.33,6.34-19.37s6.57-9.91,8.68-13.05,3.84-8.17,3.84-11.2c0-9.48,11.06-44.31,20-63,16.36-34.32,39.3-52.23,75.71-59.1,20.39-3.86,31.86-7,68.25-18.58,52.81-16.84,77.13-27.13,116.48-49.25l13.19-7.42,12.55,6.29c16.79,8.43,41.7,16.63,62.65,20.63,44.17,8.47,136-.09,165.66-15.43,7.67-4,10-3.15,30.68,10.73,18.62,12.46,34.87,19.24,99,41.27,54.86,18.84,78.32,28.4,93.16,38,15.5,10,33.57,29.78,39.87,43.66,7.4,16.31,22.55,76.76,26.09,104.1,2.29,17.69,4,24.19,7.62,28,8,8.51,11.86,23,10.28,38.29-1.33,12.76-.48,16.55,12.88,57.17,18.3,55.67,27.81,86.77,37.84,123.78,4.42,16.33,8.93,31.4,10,33.5,5.52,10.79.9,16.35-21.25,25.46A444.06,444.06,0,0,1,982,641.84c-17.28,3-20.55,4.34-29.42,12.15-11.51,10.13-20.61,13.21-39.11,13.22l-13.2,0-.31,50c-.26,43.15-1,53.71-5.6,76.83L889,820.89l5.45,10.58c10.54,20.41,5.82,60.34-11.05,93.61-4.13,8.12-4.13,8.46.08,21.25,6.36,19.37,9.67,51.44,8.65,83.94-1.08,35-1.71,35.87-26.41,37.77-26.23,2-50.73,9.48-108.46,33-51.07,20.76-80.77,29.55-118.6,35.07-16.68,2.44-109.48,5-111.4,3Zm117.84-17.5a464.18,464.18,0,0,0,91.26-26.88c66.08-27,96-36.52,123.57-39.52,7.64-.84,15.13-2.49,16.63-3.7,3.47-2.74,3.74-46.68.45-71.3-2.59-19.39-8-38.1-11.07-38.1-3.44,0-2.26-5.64,4.22-20.14,8.1-18.06,15-39.9,16.76-52.65s-2.11-30.22-8-36.52c-5-5.29-5-5.28,1.36-39.51,8.62-46.67,9.73-107.43,2.23-122.55-4-8.06-4-14.69-.1-20.06,2.53-3.45,3.64-3.69,6.41-1.4,4.88,4.06,32.23,5.85,41.68,2.73,4.33-1.44,12-7,16.95-12.45s9.92-9.33,11-8.7c7.9,4.89,111.51-24,119.17-33.26,2.25-2.72,1.9-6.07-1.92-18-2.58-8.06-8.62-28.49-13.42-45.43-11.43-40.35-26.54-88.62-37.33-119.25-7.72-21.93-8.45-25.75-6.72-35,2.69-14.38.35-24.21-8-33.52-6.46-7.22-7.2-9.58-8.49-27-1.64-21.89-9.24-57.8-13.75-65a24.66,24.66,0,0,1-3.09-11c-.06-14-9.09-35.59-21.08-50.4-15-18.55-36.57-29.47-104.26-52.85-48.27-16.68-94.69-33.51-98.08-35.56-1.33-.8-7.27-5.14-13.2-9.66C736.79,86.24,732.32,85,728,89.38c-1.49,1.49-5.9,2.8-9.78,2.9s-17,2.29-29.06,4.87c-62.46,13.29-124.44,11-171.15-6.42-9.89-3.69-20.14-6.91-22.79-7.2a18.33,18.33,0,0,1-8.41-3.5c-3.07-2.55-4.78-2.37-11.62,1.26A160.45,160.45,0,0,0,457.7,92.7c-5.19,3.93-10.69,7.15-12.23,7.15s-10.8,3.37-20.56,7.5c-28.34,12-103.45,35.79-128.48,40.78-28.76,5.74-43.05,12.61-55.91,26.92-11.23,12.49-25.2,39.54-26.88,52a35,35,0,0,0,2.41,16.56c3.17,7.57,3.17,8.27.07,7.08-6.65-2.56-11.92,2.62-11.92,11.71,0,6.51-2.07,11.25-8.79,20.2-7.58,10.08-8.8,13.27-8.8,22.88,0,9.08-1.3,12.94-7,20.62-6.26,8.52-7.13,11.66-8.83,32-2,23.87-2.89,27.64-17.17,72.69-17.36,54.79-33.18,122.7-33.15,142.4,0,3.92-.55,12.24-1.23,18.48-1.15,10.49-.86,11.43,3.91,12.74,2.83.78,10.58,3.75,17.24,6.6,34.57,14.79,74.48,22.2,110.49,20.49l21.43-1L281,639c9.05,8.87,18.58,11.14,24.08,5.71,2.23-2.21,3.41-1.89,5.94,1.52a14.2,14.2,0,0,1-.06,17.38c-1.69,2.22-3.75,8.16-4.6,13.19s-4,15.91-6.93,24.19c-4.95,13.78-5.31,17.3-4.27,41.78.63,14.72,1.79,30.8,2.58,35.77,1.07,6.76-.07,13.6-4.6,27.47-8.37,25.69-7.93,38.29,2.12,61.17,9.11,20.73,9.83,30.29,3.51,46.9-5.25,13.84-5.49,20.51-1.1,31,2.52,6,3.31,17.35,3.31,48.11,0,40.81,2.36,69,7.41,88.67l2.79,10.9,13.05-.21c21.67-.36,75.32,3.36,86.3,6,5.66,1.34,21.82,5.74,35.88,9.75,24.39,7,63.24,15.06,82.18,17.13s99.29-.53,116.54-3.8Zm307.19-509.5a6.86,6.86,0,0,1,3.86-3.85c1.64-.55,2.47.28,1.92,1.92a6.87,6.87,0,0,1-3.85,3.85C952.59,614.59,951.76,613.76,952.31,612.11ZM901.39,344.77a10.69,10.69,0,0,1,3.23-7.41c4.5-3.73,4.55,1.89.08,7.82C901.52,349.37,901.46,349.36,901.39,344.77Zm-630.09-25c-1.62-2.64.43-6.65,3.4-6.65,2.68,0,2.7,5.95,0,7.61A2.54,2.54,0,0,1,271.3,319.81ZM945.67,302c.41-2.77,2.06-5.45,3.67-6,2-.65,2.7.65,2.2,4.06-.4,2.77-2.06,5.46-3.67,6C945.87,306.74,945.17,305.44,945.67,302Zm12.83-12.61c0-1.17,1.6-3.44,3.55-5.06,3.08-2.55,3.45-2.39,2.76,1.19C964,289.83,958.5,293.2,958.5,289.43ZM246,234c0-1.2,1.48-2.19,3.29-2.19s3.3,1,3.3,2.19-1.48,2.2-3.3,2.2S246,235.2,246,234Zm433.23-97.5c0-1.62,2.51-4.09,5.6-5.5,8.27-3.77,8.92-3.16,3.19,2.95S679.22,140.94,679.22,136.49ZM522,130.63c-3.16-3.48-3.32-4.39-.77-4.39,3.44,0,8.48,4.18,8.48,7C529.68,136.4,526.07,135.15,522,130.63Z"/><path id="path1939" class="cls-7" d="M534.07,1138.07c-1.82-1-9.43-2.45-16.9-3.19-19.75-2-44.4-7.26-73.7-15.84-41.59-12.21-61.4-14.85-102.35-13.65-24.7.72-36.34.29-37.71-1.39-7.82-9.62-13.34-52.53-13.48-104.71-.09-34.88-.83-46.33-3.25-50.57-4.59-8-4.07-26.44,1-37.71,6-13.21,5.53-21.86-2-36.74a126.41,126.41,0,0,1-9.2-26.12c-3.05-14.8-1.22-27.8,7.3-51.71,4.11-11.53,4.25-13.55,1.47-23.1-1.93-6.63-2.93-20.09-2.76-36.85.25-23.25,1-28,6.13-40.29,3.23-7.67,6.06-18.92,6.32-25.05.44-10.61.14-11.26-6.13-13.28-3.63-1.18-10.06-4.84-14.29-8.14-7.41-5.78-9-6.05-41.79-7.36-26.7-1.06-38.61-2.6-55-7-11.49-3.14-23.86-6.47-27.49-7.44A85.34,85.34,0,0,1,136,622.14a93.48,93.48,0,0,0-18.69-6.44l-11-2.44-.64-19.72c-.36-10.85.27-21.71,1.39-24.14s3.24-12.36,4.72-22c4.57-30,20.11-90.09,34.42-133,11.21-33.63,12.94-43.14,13.86-76,.07-2.51,3-8.94,6.44-14.3a50.56,50.56,0,0,0,7.58-21.14c1.29-11.62,4-17.88,13.69-31.24,3-4.19,5.41-10.52,5.41-14.43,0-9.68,13.92-51.7,22.42-67.63,16.43-30.82,36.42-44.5,76.54-52.42,26.66-5.25,112.58-33.27,137.82-44.94,9.44-4.35,24.7-12.34,33.88-17.72s18.34-9.79,20.32-9.79S495,68,503.79,72.12c32.68,15.28,61.57,21.14,104.12,21.14,44.36,0,97.71-8.48,117.38-18.64,7.76-4,7.53-4.1,33.27,12.33,17.54,11.2,40.48,20.51,102.09,41.42,46.56,15.8,73.07,26.73,87.65,36.12,15.22,9.79,31.36,27.57,37.73,41.54,7.46,16.34,24.6,85.63,26.46,106.9,1.32,15.12,2.57,19.2,7.87,25.88,8.41,10.59,11.45,22.86,9.7,39.21-1.2,11.09-.51,16,4.06,28.68,9.55,26.56,27.44,83.89,42.2,135.18,7.82,27.21,15.27,51.31,16.53,53.53,1.75,3.09,1.4,5.05-1.45,8.19-8.25,9.12-75.76,31.09-114.56,37.29-11.79,1.88-16.39,3.84-22.94,9.76-12.49,11.29-16.94,13-37.17,14.28l-18.68,1.2-.23,50.57c-.18,38.45-1.14,55.07-4,69.28-6.44,31.72-6.59,35.74-1.73,45.26,10.2,20,8.23,46.68-6.08,82.55L877.54,935l4,11.94c6.25,19,9.37,48.82,8.52,81.71-.88,34.38-2,36.64-17.78,36.64-22.77,0-53.4,8.93-113.85,33.18C700.86,1121.51,663.51,1132,628,1135c-8.2.71-15.44,2.12-16.08,3.15-1.49,2.41-73.51,2.33-77.86-.09Zm118.76-15.45c39.1-8.09,58.68-14.34,101.29-32.28,46.89-19.75,81.23-30.22,108.26-33,11-1.13,15.48-2.55,17-5.47,2.8-5.23,2.69-52.27-.17-73.89a191.85,191.85,0,0,0-6.9-30.68l-4.64-13.48L875.82,915c15.64-36.4,17.9-65.14,6.47-82-4.27-6.28-5.22-9.74-4.09-14.93,12.95-60.37,15-111,6.34-157.14l-1.39-7.43,15.13,1.71c27.33,3.08,39,0,52.22-14,4.74-5,9.06-7,17.59-8.16,26.88-3.64,62.21-12.82,90.47-23.53,26.26-9.94,25.79-9.14,18.73-32.4-2.38-7.9-7.39-25.24-11.13-38.55-9-32.09-22-74-35.44-114.2-9.86-29.45-10.84-34.11-9.53-45.28,1.83-15.87-1.54-28.43-9.55-35.56-5.78-5.16-6.38-7.19-7.73-26.22-1.39-19.49-9.94-59.19-14.66-68a24.25,24.25,0,0,1-2.16-9.56c0-3-2.65-12.64-5.87-21.35-8.9-24-25.68-40.89-54.46-54.81-12.18-5.88-35.5-15.27-51.82-20.87-88.7-30.41-106.47-37.65-128.72-52.42-10.39-6.9-13.55-8-17.32-6.22-19.82,9.52-76.71,18-121,18S532.44,95.93,500,80.82c-6.05-2.81-13.21-5.13-15.91-5.14-4.41,0-22.73,9.65-31.37,16.54-4.9,3.91-56.1,23.43-91.28,34.81-39.78,12.85-51.18,16-72.5,20.06-33.4,6.33-52.42,21-67.83,52.16-4.36,8.83-9.52,23-11.46,31.45s-4.47,16.33-5.59,17.48S202,254.38,202,259.4c0,8.77-.92,10.62-14.27,28.71-1.88,2.55-4.21,11.2-5.17,19.23-1.28,10.59-3.16,16.09-6.86,20-4.28,4.56-5.42,9.06-7.11,28.06-2.17,24.51-3.18,28.74-18.2,76.49-11.55,36.77-21.06,73-27.37,104.46-4.83,24-8.79,59.43-7.31,65.24.52,2,5.05,5.15,10.08,7l21.43,7.8c37.88,13.77,50,16.1,88.39,17l36.92.85,7.69,7.69c6.73,6.73,9.07,7.7,18.62,7.7,6,0,10.92.74,10.92,1.65,0,4.44-11.73,48.37-14.2,53.24-4.48,8.81-6.12,36.7-3.18,54,4,23.14,3.46,31-3.41,53.83-7.3,24.14-6.59,32.11,5.25,59.08,7.88,18,8.38,26.82,2.34,42.12-5,12.75-5.64,24.51-1.65,31.48,1.87,3.28,3.16,22,4.07,58.69,1.35,54.45,5.27,85.33,11.67,91.92,2.13,2.19,5.81,2.38,15.79.78,14.68-2.33,63.84.23,81.17,4.23,6.05,1.4,22.88,5.83,37.39,9.85,26.45,7.32,64.87,15.43,81.37,17.17,4.84.5,30.08.65,56.08.34,38.3-.48,51.67-1.5,70.37-5.36Z"/><path id="path1935" class="cls-8" d="M548.5,1138.05c-.68-1.08-7.42-2.62-15-3.4-24.47-2.54-52.88-7.71-73.13-13.31-68.56-18.93-59.66-17.51-109.37-17.55l-45.6,0-2-5.5c-4.27-11.56-5.07-14.83-8.08-33-1.93-11.72-3.11-35.6-3.12-64,0-35.28-.77-47.12-3.34-53.27-4.51-10.79-4.13-23.32,1.1-36.61,5.91-15,5.55-22-1.9-36.89-8.09-16.2-12.18-33.67-10.56-45.36.69-5.08,3.85-17.45,7-27.49,5.35-16.93,5.56-19.08,2.92-29.58-1.56-6.23-2.77-22.22-2.67-35.52.15-20.44,1-26.41,5.76-38.52,7-18,9.64-34.08,6.18-38.24-1.39-1.69-5.16-3.73-8.38-4.53s-9-4.21-12.77-7.57c-6.78-6-7.75-6.12-41.91-7.5-34-1.37-38.64-2.16-79.17-13.38a125,125,0,0,1-19.85-7.5,75.28,75.28,0,0,0-19-6l-10.4-1.56V596.85c0-8.93,1.32-17.42,3.29-21.19a33.15,33.15,0,0,0,3.29-12.76c0-18.31,26-120.71,41.58-164.16,5.32-14.84,9-36.16,9-52.58,0-8.34,1.38-14.15,4.38-18.71,2.4-3.62,5.32-8.08,6.49-9.88s2.74-9,3.49-16c1.06-9.86,3.09-14.95,9-22.76A47.07,47.07,0,0,0,195.41,257c7.09-43.57,27.15-83.66,50.09-100.08,13-9.31,20.11-11.8,59.74-20.91,51.21-11.79,121.41-37.71,155.69-57.47,11.17-6.44,21.85-11.72,23.71-11.72s9,2.86,16,6.35c30.24,15.24,64.11,22.26,107.14,22.17,44.53-.09,86.72-6.25,111.56-16.28C734.35,73,733.41,72.8,755,87.4c17.18,11.61,36,19.39,99.38,41.06,101.18,34.62,124.53,51.64,137.22,100.08,2.52,9.66,7,27,10.06,38.44a423.36,423.36,0,0,1,8.45,44.65c2.51,20,3.82,24.6,8.38,29.16,7.53,7.51,11.15,22,9.41,37.62-1.26,11.35-.39,15.85,7.54,39.21,12,35.11,23.85,73.43,40.88,131.75,7.75,26.5,14.55,48.65,15.12,49.23,1.89,1.87-8.92,9-21,13.78-28.83,11.47-65.9,21.71-94.67,26.15-14.07,2.17-18.75,4.24-25,11.12-7.92,8.75-16.88,12-36.26,13.17l-18.69,1.11-.19,50.57c-.15,41.48-1,55-4.8,75.3-2.54,13.59-5.23,25.69-6,26.87s1.41,7.9,4.78,14.88c11.09,23.1,7.81,51.48-11.06,95.29-3.08,7.13-3,8.84.59,19.79,6.57,20,9.49,47.26,8.63,80.78-.89,35.25-1,35.56-16.76,35.63-22,.06-63.17,12.28-117.08,34.76-33.53,14-65.43,24.25-94,30.23-17.33,3.62-46.08,7.63-54.91,7.66-2.66,0-5.44,1-6.17,2.19-1.68,2.71-48.76,2.88-50.43.17ZM646.22,1127c5.45-1.35,14.85-3.51,20.9-4.8,23.41-5,55.17-15.43,86.3-28.4,52.23-21.75,83-31.19,111-34.08,8.6-.88,15.88-2.86,17.43-4.72,3.51-4.23,3.46-57.77-.1-79.87a205.55,205.55,0,0,0-6.94-28.82L870.53,934l6.32-14.07c10.57-23.47,14.3-38.89,14.34-59.27,0-16.26-.73-20.15-5.6-28.59l-5.66-9.76L885,797c6.29-31.28,8.9-84.57,5.62-115.38-2.55-24-1.67-26.48,8.46-23.63,9.67,2.71,29.48,1.26,37.43-2.75a81.62,81.62,0,0,0,15.37-11.07c5.74-5.38,10.48-7.57,18.69-8.64,33.13-4.3,101.23-24.93,111.56-33.8,3.81-3.26,3.73-7.28-.43-20.24-1-3-2.86-9.46-4.19-14.3-10.38-37.58-28.74-97.24-44.36-144-9.62-28.85-10.52-33.22-9.36-45.75,1.48-16-2.08-29.58-9.2-35.24-3.73-2.95-5.21-8-7.5-25.67-2.51-19.35-9.74-53-15.58-72.57-1.09-3.64-3.12-11.06-4.52-16.5-6.28-24.34-19.61-42.38-42.33-57.29-16.06-10.52-35.18-18.47-90.5-37.6-63.56-22-62.8-21.72-75.83-27.47a231,231,0,0,1-26.87-15.12c-8.23-5.43-16.45-9.86-18.27-9.86s-10.49,2.3-19.31,5.13A274.77,274.77,0,0,1,681.42,93c-9.08,1.48-21.87,3.63-28.42,4.77-18.65,3.22-73.86,2.52-91.44-1.18-28.41-6-41.69-10-57.95-17.72-8.9-4.2-17.52-7.63-19.18-7.63s-11.69,5.15-22.31,11.43S435.88,97,427.41,100.5c-29,12-112.13,38.45-133,42.35-48.26,9-67.71,27.26-86,80.76-4.64,13.57-8.47,28.73-8.49,33.7a27.48,27.48,0,0,1-5.47,16.49l-9.18,12.63c-2.07,2.83-4.2,10.75-4.73,17.59-.64,8.23-2.62,14.67-5.85,19-7.26,9.82-10,19.84-10,36.51,0,15.57-2.09,24.94-12.93,58.05-20.2,61.7-33.14,116.46-37.78,159.9-3,27.67-1.89,32.53,7.08,32.53,2.32,0,8.38,2.12,13.48,4.74a96.36,96.36,0,0,0,15.85,6.44c3.63.94,15.51,4.33,26.39,7.55,16.61,4.89,25.92,6.07,57.88,7.29,33.12,1.28,38.39,2,40.26,5.33,2.86,5.12,17.85,12.63,25.2,12.63,5.25,0,5.72.62,4.53,6.05-.73,3.32-2.77,12.64-4.52,20.69s-4.92,18-7,22c-4.95,9.43-5.69,54.82-1.15,70.43,2.64,9.09,2.55,11.59-.72,20.89-13.28,37.85-13,50.47,1.87,82,6.88,14.58,7,18.46,1.34,34.62-5.33,15.15-5.6,28-.84,39.33,3,7.17,3.34,13.72,2.09,41.5-1.54,34.6,2,73.41,8.75,96.77l3.19,11,43.44.11c39.94.09,45.2.58,65.42,6,54.5,14.58,71.4,18.73,85.77,21.08,8.47,1.38,17.87,2.93,20.89,3.44,11.19,1.87,113.6-.62,123.15-3Z"/></g></g></svg>